<?xml version="1.0" encoding="UTF-8"?>
<svg width="214px" height="214px" viewBox="0 0 214 214" xmlns="http://www.w3.org/2000/svg" xmlns:xlink="http://www.w3.org/1999/xlink" version="1.1">
 <!-- Generated by Pixelmator Pro 1.7.1 -->
 <path id="Path" d="M213.793 106.92 C213.793 150.114 187.774 189.054 147.868 205.584 107.962 222.113 62.029 212.977 31.486 182.434 0.943 151.891 -8.193 105.958 8.336 66.052 24.866 26.146 63.806 0.127 107 0.127 135.324 0.126 162.488 11.376 182.516 31.404 202.544 51.432 213.794 78.596 213.793 106.92" fill="#5bbdbf" fill-opacity="1" stroke="none"/>
 <path id="Path-1" d="M108.799 66.893 L136.438 135.102 94.692 102.221 Z M157.895 150.815 L115.385 48.514 C114.382 45.755 111.734 43.94 108.799 44.001 105.819 43.933 103.115 45.737 102.034 48.514 L55.377 160.726 71.338 160.726 89.806 114.458 144.923 158.988 C147.142 160.782 148.739 161.593 150.82 161.593 152.874 161.641 154.86 160.858 156.329 159.422 157.798 157.986 158.625 156.018 158.623 153.964 158.551 152.882 158.305 151.819 157.895 150.815" fill="#ffffff" fill-opacity="1" stroke="none"/>
</svg>
