<svg xmlns="http://www.w3.org/2000/svg" xmlns:xlink="http://www.w3.org/1999/xlink" width="200" height="200" version="1.1" viewBox="0 0 200 200"><path id="Path" fill="#5bbdbf" fill-opacity="1" stroke="none" d="M199.807 99.925 C199.807 140.293 175.49 176.686 138.194 192.135 100.899 207.582 57.971 199.044 29.426 170.499 0.881 141.954 -7.657 99.026 7.791 61.731 23.239 24.436 59.632 0.119 100 0.119 126.471 0.118 151.858 10.632 170.576 29.35 189.293 48.067 199.807 73.454 199.807 99.925"/><path id="Path-1" fill="#fff" fill-opacity="1" stroke="none" d="M101.681 62.517 L127.512 126.264 88.497 95.534 Z M147.565 140.949 L107.836 45.34 C106.899 42.762 104.424 41.065 101.681 41.122 98.896 41.059 96.369 42.745 95.359 45.34 L51.754 150.211 66.671 150.211 83.931 106.97 135.442 148.587 C137.516 150.264 139.008 151.021 140.953 151.021 142.873 151.066 144.729 150.335 146.102 148.993 147.475 147.65 148.248 145.811 148.246 143.892 148.179 142.88 147.949 141.887 147.565 140.949"/></svg>