<svg xmlns="http://www.w3.org/2000/svg" xmlns:xlink="http://www.w3.org/1999/xlink" width="200" height="200" version="1.1" viewBox="0 0 200 200"><path id="Path" fill="#446ca9" fill-opacity="1" stroke="none" d="M38.976 167.577 L40.205 167.577 45.392 179.044 44.027 179.044 42.662 176.041 36.451 176.041 35.085 179.044 33.788 179.044 Z M42.184 174.881 L39.59 169.078 36.997 174.881 Z M48.259 167.645 L49.556 167.645 53.72 173.857 57.884 167.645 59.181 167.645 59.181 179.044 57.884 179.044 57.884 169.829 53.72 175.904 53.652 175.904 49.488 169.829 49.488 179.044 48.259 179.044 Z M63.003 167.645 L67.85 167.645 C69.147 167.645 70.171 167.986 70.853 168.669 71.331 169.147 71.604 169.761 71.604 170.512 71.604 172.014 70.717 172.765 69.829 173.174 71.195 173.584 72.287 174.334 72.287 175.904 72.287 177.884 70.648 178.976 68.191 178.976 L63.14 178.976 63.14 167.645 Z M70.239 170.648 C70.239 169.556 69.352 168.805 67.713 168.805 L64.232 168.805 64.232 172.696 67.577 172.696 C69.215 172.696 70.239 172.014 70.239 170.648 Z M67.85 173.857 L64.232 173.857 64.232 177.884 68.055 177.884 C69.761 177.884 70.853 177.133 70.853 175.836 70.922 174.539 69.829 173.857 67.85 173.857 Z M79.386 167.577 L80.614 167.577 85.802 179.044 84.437 179.044 83.072 176.041 76.86 176.041 75.495 179.044 74.198 179.044 Z M82.594 174.881 L80 169.078 77.406 174.881 Z M87.713 177.338 L88.532 176.382 C89.693 177.474 90.853 178.02 92.423 178.02 93.925 178.02 94.949 177.201 94.949 176.109 94.949 175.085 94.403 174.471 92.014 173.925 89.42 173.379 88.191 172.491 88.191 170.648 88.191 168.874 89.761 167.577 91.945 167.577 93.584 167.577 94.812 168.055 95.973 168.942 L95.222 169.966 C94.198 169.078 93.106 168.737 91.945 168.737 90.444 168.737 89.556 169.556 89.556 170.58 89.556 171.672 90.171 172.287 92.628 172.765 95.154 173.311 96.314 174.266 96.314 175.973 96.314 177.952 94.676 179.181 92.423 179.181 90.58 179.181 89.078 178.567 87.713 177.338 Z M98.567 177.338 L99.386 176.382 C100.546 177.474 101.706 178.02 103.276 178.02 104.778 178.02 105.802 177.201 105.802 176.109 105.802 175.085 105.256 174.471 102.867 173.925 100.273 173.379 99.044 172.491 99.044 170.648 99.044 168.874 100.614 167.577 102.799 167.577 104.437 167.577 105.666 168.055 106.826 168.942 L106.075 169.966 C105.051 169.078 103.959 168.737 102.799 168.737 101.297 168.737 100.41 169.556 100.41 170.58 100.41 171.672 101.024 172.287 103.481 172.765 106.007 173.311 107.167 174.266 107.167 175.973 107.167 177.952 105.529 179.181 103.276 179.181 101.433 179.181 99.932 178.567 98.567 177.338 Z M114.334 167.577 L115.563 167.577 120.751 179.044 119.386 179.044 118.02 176.041 111.809 176.041 110.444 179.044 109.147 179.044 Z M117.474 174.881 L114.881 169.078 112.287 174.881 Z M123.618 167.645 L127.577 167.645 C131.126 167.645 133.584 170.102 133.584 173.311 133.584 176.519 131.126 178.976 127.577 178.976 L123.618 178.976 Z M124.915 168.805 L124.915 177.816 127.577 177.816 C130.444 177.816 132.287 175.836 132.287 173.379 132.287 170.853 130.444 168.874 127.577 168.874 L124.915 168.874 Z M136.451 173.379 C136.451 170.239 138.771 167.44 142.253 167.44 145.734 167.44 148.055 170.171 148.055 173.311 148.055 176.451 145.734 179.181 142.253 179.181 138.771 179.181 136.451 176.519 136.451 173.379 Z M146.689 173.379 C146.689 170.785 144.778 168.669 142.184 168.669 139.59 168.669 137.747 170.717 137.747 173.311 137.747 175.904 139.659 178.02 142.253 178.02 144.846 178.02 146.689 175.973 146.689 173.379 Z M151.399 167.645 L156.314 167.645 C157.679 167.645 158.84 168.055 159.522 168.805 160.068 169.352 160.41 170.171 160.41 171.058 160.41 172.969 159.113 174.061 157.338 174.403 L160.819 179.044 159.249 179.044 155.973 174.608 152.696 174.608 152.696 179.044 151.399 179.044 Z M156.177 173.447 C157.884 173.447 159.113 172.56 159.113 171.126 159.113 169.761 158.02 168.874 156.177 168.874 L152.696 168.874 152.696 173.515 156.177 173.515 Z"/><g id="XMLID_1284_"><path id="XMLID_552_" fill="#000" fill-opacity="1" stroke="none" d="M64.232 145.802 C65.256 145.802 66.075 145.392 66.758 144.573 L68.123 145.939 C67.031 147.167 65.802 147.713 64.369 147.713 62.935 147.713 61.706 147.236 60.819 146.348 59.863 145.461 59.386 144.3 59.386 142.867 59.386 141.502 59.863 140.341 60.819 139.386 61.775 138.43 62.935 138.02 64.3 138.02 65.87 138.02 67.099 138.635 68.191 139.795 L66.894 141.297 C66.212 140.478 65.392 140.068 64.437 140.068 63.618 140.068 63.003 140.341 62.389 140.819 61.843 141.365 61.57 142.048 61.57 142.867 61.57 143.754 61.843 144.437 62.389 144.983 62.799 145.529 63.481 145.802 64.232 145.802 Z"/><path id="XMLID_550_" fill="#000" fill-opacity="1" stroke="none" d="M69.693 147.645 L69.693 138.294 71.809 138.294 71.809 145.802 75.768 145.802 75.768 147.645 Z"/><path id="XMLID_547_" fill="#000" fill-opacity="1" stroke="none" d="M84.915 146.348 C83.959 147.304 82.799 147.713 81.433 147.713 80.068 147.713 78.908 147.235 77.952 146.348 76.997 145.392 76.519 144.3 76.519 142.867 76.519 141.502 76.997 140.341 77.952 139.386 78.908 138.43 80.068 138.02 81.433 138.02 82.799 138.02 83.959 138.498 84.915 139.386 85.87 140.341 86.348 141.433 86.348 142.867 86.348 144.3 85.87 145.392 84.915 146.348 Z M84.232 142.867 C84.232 142.048 83.959 141.297 83.413 140.751 82.867 140.137 82.184 139.863 81.433 139.863 80.683 139.863 80 140.137 79.454 140.751 78.908 141.365 78.635 142.048 78.635 142.867 78.635 143.686 78.908 144.437 79.454 144.983 80 145.597 80.614 145.87 81.433 145.87 82.184 145.87 82.867 145.597 83.413 144.983 83.959 144.437 84.232 143.754 84.232 142.867 Z"/><path id="XMLID_545_" fill="#000" fill-opacity="1" stroke="none" d="M90.58 145.188 C90.922 145.597 91.399 145.87 92.014 145.87 92.628 145.87 93.038 145.666 93.447 145.188 93.788 144.778 93.993 144.164 93.993 143.413 L93.993 138.225 96.109 138.225 96.109 143.481 C96.109 144.846 95.7 145.87 95.017 146.621 94.266 147.372 93.311 147.713 92.15 147.713 90.99 147.713 90.034 147.372 89.283 146.621 88.532 145.87 88.123 144.846 88.123 143.481 L88.123 138.225 90.239 138.225 90.239 143.413 C90.102 144.164 90.239 144.778 90.58 145.188 Z"/><path id="XMLID_542_" fill="#000" fill-opacity="1" stroke="none" d="M105.324 139.522 C106.212 140.341 106.689 141.502 106.689 142.935 106.689 144.369 106.28 145.529 105.392 146.416 104.505 147.235 103.208 147.713 101.433 147.713 L98.225 147.713 98.225 138.362 101.502 138.362 C103.14 138.294 104.437 138.703 105.324 139.522 Z M103.823 145.051 C104.369 144.573 104.573 143.891 104.573 142.935 104.573 142.048 104.3 141.297 103.823 140.819 103.276 140.341 102.526 140.068 101.433 140.068 L100.273 140.068 100.273 145.734 101.57 145.734 C102.594 145.802 103.276 145.529 103.823 145.051 Z"/><path id="XMLID_540_" fill="#000" fill-opacity="1" stroke="none" d="M118.567 138.294 L120.683 138.294 120.683 147.645 118.567 147.645 114.13 141.775 114.13 147.645 112.014 147.645 112.014 138.294 113.993 138.294 118.567 144.3 Z"/><path id="XMLID_537_" fill="#000" fill-opacity="1" stroke="none" d="M129.625 147.645 L128.737 145.597 124.778 145.597 123.891 147.645 121.638 147.645 125.666 138.294 127.713 138.294 131.741 147.645 Z M126.826 141.024 L125.666 143.754 127.986 143.754 Z"/><path id="XMLID_535_" fill="#000" fill-opacity="1" stroke="none" d="M136.246 140.068 L136.246 147.645 134.13 147.645 134.13 140.068 131.468 140.068 131.468 138.294 138.84 138.294 138.84 140.068 Z"/><path id="XMLID_533_" fill="#000" fill-opacity="1" stroke="none" d="M140.41 138.294 L142.526 138.294 142.526 147.645 140.41 147.645 Z"/><path id="XMLID_531_" fill="#000" fill-opacity="1" stroke="none" d="M148.259 144.232 L150.648 138.294 152.901 138.294 149.147 147.645 147.372 147.645 143.618 138.294 145.87 138.294 Z"/><path id="XMLID_529_" fill="#000" fill-opacity="1" stroke="none" d="M160.819 138.294 L160.819 140.137 156.177 140.137 156.177 142.048 160.341 142.048 160.341 143.823 156.177 143.823 156.177 145.734 160.956 145.734 160.956 147.577 154.061 147.577 154.061 138.225 160.819 138.225 Z"/><path id="XMLID_527_" fill="#000" fill-opacity="1" stroke="none" d="M61.775 155.631 C62.321 155.631 62.799 155.427 63.208 154.949 L63.959 155.7 C63.345 156.382 62.662 156.724 61.843 156.724 61.024 156.724 60.341 156.451 59.863 155.973 59.317 155.495 59.113 154.812 59.113 154.061 59.113 153.311 59.386 152.628 59.932 152.082 60.478 151.536 61.092 151.331 61.911 151.331 62.799 151.331 63.481 151.672 64.096 152.287 L63.345 153.106 C63.003 152.628 62.526 152.423 61.98 152.423 61.57 152.423 61.16 152.56 60.819 152.833 60.478 153.106 60.341 153.515 60.341 153.993 60.341 154.471 60.478 154.881 60.751 155.154 61.024 155.495 61.365 155.631 61.775 155.631 Z"/><path id="XMLID_524_" fill="#000" fill-opacity="1" stroke="none" d="M69.215 155.904 C68.669 156.451 68.055 156.655 67.235 156.655 66.485 156.655 65.802 156.382 65.256 155.904 64.71 155.358 64.437 154.744 64.437 153.993 64.437 153.242 64.71 152.56 65.256 152.082 65.802 151.536 66.416 151.331 67.235 151.331 67.986 151.331 68.669 151.604 69.215 152.082 69.761 152.628 70.034 153.242 70.034 153.993 70.034 154.744 69.693 155.427 69.215 155.904 Z M68.805 153.993 C68.805 153.515 68.669 153.106 68.328 152.764 68.055 152.423 67.645 152.287 67.235 152.287 66.826 152.287 66.416 152.423 66.143 152.764 65.87 153.106 65.666 153.515 65.666 153.993 65.666 154.471 65.802 154.881 66.143 155.154 66.416 155.495 66.826 155.631 67.235 155.631 67.645 155.631 68.055 155.495 68.328 155.154 68.669 154.881 68.805 154.471 68.805 153.993 Z"/><path id="XMLID_522_" fill="#000" fill-opacity="1" stroke="none" d="M75.7 153.311 L74.266 156.177 73.584 156.177 72.15 153.311 72.15 156.587 70.99 156.587 70.99 151.331 72.56 151.331 73.925 154.198 75.29 151.331 76.86 151.331 76.86 156.587 75.7 156.587 Z"/><path id="XMLID_519_" fill="#000" fill-opacity="1" stroke="none" d="M81.775 151.877 C82.116 152.218 82.321 152.696 82.321 153.311 82.321 153.925 82.116 154.403 81.775 154.744 81.365 155.017 80.819 155.222 80.068 155.222 L79.386 155.222 79.386 156.655 78.225 156.655 78.225 151.399 80.068 151.399 C80.819 151.399 81.365 151.536 81.775 151.877 Z M80.887 153.925 C81.024 153.788 81.092 153.515 81.092 153.242 81.092 152.969 81.024 152.696 80.819 152.628 80.614 152.491 80.341 152.423 80 152.423 L79.317 152.423 79.317 154.198 80.137 154.198 C80.478 154.198 80.751 154.061 80.887 153.925 Z"/><path id="XMLID_517_" fill="#000" fill-opacity="1" stroke="none" d="M84.642 155.29 C84.846 155.563 85.119 155.631 85.461 155.631 85.802 155.631 86.075 155.495 86.212 155.29 86.416 155.017 86.485 154.744 86.485 154.266 L86.485 151.399 87.645 151.399 87.645 154.334 C87.645 155.085 87.44 155.7 87.031 156.109 86.621 156.519 86.075 156.724 85.392 156.724 84.71 156.724 84.164 156.519 83.754 156.109 83.345 155.7 83.14 155.085 83.14 154.334 L83.14 151.399 84.3 151.399 84.3 154.266 C84.3 154.744 84.437 155.017 84.642 155.29 Z"/><path id="XMLID_515_" fill="#000" fill-opacity="1" stroke="none" d="M91.126 152.423 L91.126 156.655 89.966 156.655 89.966 152.423 88.464 152.423 88.464 151.399 92.628 151.399 92.628 152.423 Z"/><path id="XMLID_513_" fill="#000" fill-opacity="1" stroke="none" d="M93.447 151.399 L94.608 151.399 94.608 156.655 93.447 156.655 Z"/><path id="XMLID_511_" fill="#000" fill-opacity="1" stroke="none" d="M99.59 151.399 L100.751 151.399 100.751 156.655 99.59 156.655 97.065 153.379 97.065 156.655 95.904 156.655 95.904 151.399 96.997 151.399 99.59 154.812 Z"/><path id="XMLID_509_" fill="#000" fill-opacity="1" stroke="none" d="M105.461 153.993 L106.621 153.993 106.621 155.836 C106.075 156.451 105.392 156.724 104.437 156.724 103.686 156.724 103.003 156.451 102.526 155.973 101.98 155.495 101.775 154.812 101.775 154.061 101.775 153.311 102.048 152.628 102.594 152.082 103.14 151.536 103.754 151.331 104.505 151.331 105.256 151.331 105.939 151.604 106.485 152.082 L105.802 152.901 C105.597 152.696 105.324 152.56 105.119 152.491 104.915 152.423 104.71 152.355 104.505 152.355 104.027 152.355 103.686 152.491 103.345 152.833 103.072 153.106 102.867 153.515 102.867 154.061 102.867 154.539 103.003 154.949 103.276 155.222 103.549 155.495 103.891 155.7 104.3 155.7 104.71 155.7 105.051 155.631 105.324 155.495 L105.324 153.993 Z"/><path id="XMLID_507_" fill="#000" fill-opacity="1" stroke="none" d="M113.242 151.399 L113.242 152.423 110.785 152.423 110.785 153.584 113.106 153.584 113.106 154.608 110.785 154.608 110.785 156.655 109.625 156.655 109.625 151.399 Z"/><path id="XMLID_504_" fill="#000" fill-opacity="1" stroke="none" d="M118.635 155.904 C118.089 156.451 117.474 156.655 116.655 156.655 115.904 156.655 115.222 156.382 114.676 155.904 114.13 155.358 113.857 154.744 113.857 153.993 113.857 153.242 114.13 152.56 114.676 152.082 115.222 151.536 115.836 151.331 116.655 151.331 117.406 151.331 118.089 151.604 118.635 152.082 119.181 152.628 119.454 153.242 119.454 153.993 119.454 154.744 119.181 155.427 118.635 155.904 Z M118.294 153.993 C118.294 153.515 118.157 153.106 117.816 152.764 117.543 152.423 117.133 152.287 116.724 152.287 116.314 152.287 115.904 152.423 115.631 152.764 115.358 153.106 115.154 153.515 115.154 153.993 115.154 154.471 115.29 154.881 115.631 155.154 115.904 155.495 116.314 155.631 116.724 155.631 117.133 155.631 117.543 155.495 117.816 155.154 118.089 154.881 118.294 154.471 118.294 153.993 Z"/><path id="XMLID_502_" fill="#000" fill-opacity="1" stroke="none" d="M121.843 155.29 C122.048 155.563 122.321 155.631 122.662 155.631 123.003 155.631 123.276 155.495 123.413 155.29 123.618 155.017 123.686 154.744 123.686 154.266 L123.686 151.399 124.846 151.399 124.846 154.334 C124.846 155.085 124.642 155.7 124.232 156.109 123.823 156.519 123.276 156.724 122.594 156.724 121.911 156.724 121.365 156.519 120.956 156.109 120.546 155.7 120.341 155.085 120.341 154.334 L120.341 151.399 121.502 151.399 121.502 154.266 C121.57 154.744 121.638 155.017 121.843 155.29 Z"/><path id="XMLID_500_" fill="#000" fill-opacity="1" stroke="none" d="M129.761 151.399 L130.922 151.399 130.922 156.655 129.761 156.655 127.236 153.379 127.236 156.655 126.075 156.655 126.075 151.399 127.167 151.399 129.761 154.812 Z"/><path id="XMLID_497_" fill="#000" fill-opacity="1" stroke="none" d="M136.246 152.082 C136.724 152.56 136.997 153.174 136.997 153.993 136.997 154.812 136.724 155.427 136.246 155.904 135.768 156.382 135.017 156.587 133.993 156.587 L132.218 156.587 132.218 151.331 134.061 151.331 C135.017 151.399 135.768 151.604 136.246 152.082 Z M135.358 155.222 C135.631 154.949 135.768 154.539 135.768 154.061 135.768 153.515 135.631 153.174 135.358 152.901 135.085 152.628 134.608 152.491 134.061 152.491 L133.379 152.491 133.379 155.7 134.13 155.7 C134.676 155.631 135.085 155.495 135.358 155.222 Z"/><path id="XMLID_494_" fill="#000" fill-opacity="1" stroke="none" d="M141.57 156.655 L141.092 155.495 138.908 155.495 138.43 156.655 137.201 156.655 139.454 151.399 140.614 151.399 142.867 156.655 Z M140 152.969 L139.317 154.471 140.614 154.471 Z"/><path id="XMLID_492_" fill="#000" fill-opacity="1" stroke="none" d="M145.324 152.423 L145.324 156.655 144.164 156.655 144.164 152.423 142.662 152.423 142.662 151.399 146.826 151.399 146.826 152.423 Z"/><path id="XMLID_490_" fill="#000" fill-opacity="1" stroke="none" d="M147.645 151.399 L148.805 151.399 148.805 156.655 147.645 156.655 Z"/><path id="XMLID_487_" fill="#000" fill-opacity="1" stroke="none" d="M154.539 155.904 C153.993 156.451 153.379 156.655 152.56 156.655 151.809 156.655 151.126 156.382 150.58 155.904 150.034 155.358 149.761 154.744 149.761 153.993 149.761 153.242 150.034 152.56 150.58 152.082 151.126 151.536 151.741 151.331 152.56 151.331 153.311 151.331 153.993 151.604 154.539 152.082 155.085 152.628 155.358 153.242 155.358 153.993 155.358 154.744 155.017 155.427 154.539 155.904 Z M154.13 153.993 C154.13 153.515 153.993 153.106 153.652 152.764 153.379 152.423 152.969 152.287 152.56 152.287 152.15 152.287 151.741 152.423 151.468 152.764 151.195 153.106 150.99 153.515 150.99 153.993 150.99 154.471 151.126 154.881 151.468 155.154 151.741 155.495 152.15 155.631 152.56 155.631 152.969 155.631 153.379 155.495 153.652 155.154 153.993 154.881 154.13 154.471 154.13 153.993 Z"/><path id="XMLID_485_" fill="#000" fill-opacity="1" stroke="none" d="M160 151.399 L161.16 151.399 161.16 156.655 160 156.655 157.474 153.379 157.474 156.655 156.314 156.655 156.314 151.399 157.406 151.399 160 154.812 Z"/></g><g id="XMLID_1279_"><path id="XMLID_1283_" fill="#446ca9" fill-opacity="1" stroke="none" d="M36.86 150.444 L33.993 150.444 33.993 157.133 40.751 157.133 40.751 154.266 36.86 154.266 Z"/><path id="XMLID_1282_" fill="#446ca9" fill-opacity="1" stroke="none" d="M51.263 150.444 L51.263 154.266 47.44 154.266 47.44 157.133 54.198 157.133 54.198 150.444 Z"/><path id="XMLID_1281_" fill="#446ca9" fill-opacity="1" stroke="none" d="M33.993 143.686 L36.928 143.686 36.86 143.686 36.86 139.863 40.751 139.863 40.751 136.997 33.993 136.997 Z"/><path id="XMLID_1280_" fill="#446ca9" fill-opacity="1" stroke="none" d="M47.44 136.997 L47.44 139.863 51.263 139.863 51.263 143.686 54.198 143.686 54.198 136.997 Z"/></g><g id="XMLID_1274_"><path id="XMLID_1278_" fill="#76c4d5" fill-opacity="1" stroke="none" d="M47.099 143.686 L43.276 139.863 47.44 139.863 47.44 136.997 40.751 136.997 40.751 139.863 44.573 143.686 Z"/><path id="XMLID_1277_" fill="#76c4d5" fill-opacity="1" stroke="none" d="M43.618 150.444 L41.092 150.444 44.232 153.584 44.915 154.266 40.751 154.266 40.751 157.133 47.44 157.133 47.44 154.266 45.529 152.355 Z"/><path id="XMLID_1276_" fill="#76c4d5" fill-opacity="1" stroke="none" d="M51.263 143.686 L51.263 147.918 50.648 147.235 47.44 144.027 47.44 146.621 49.352 148.532 51.263 150.444 54.198 150.444 54.198 143.686 Z"/><path id="XMLID_1275_" fill="#76c4d5" fill-opacity="1" stroke="none" d="M40.751 147.509 L36.928 143.686 33.993 143.686 33.993 150.444 36.86 150.444 36.86 146.212 40.751 150.102 Z"/></g><path id="Path-1" fill="#375194" fill-opacity="1" stroke="none" d="M6.007 74.539 C4.505 76.997 3.345 79.59 2.526 82.389 L18.908 77.611 Z"/><path id="Path-2" fill="#5b7db3" fill-opacity="1" stroke="none" d="M19.181 77.474 L19.59 77.338 19.454 61.911 C13.993 64.778 9.352 69.147 6.143 74.403 6.143 74.471 6.075 74.471 6.075 74.539 L18.976 77.611 Z"/><path id="Path-3" fill="#446ca9" fill-opacity="1" stroke="none" d="M43.686 70.307 L44.027 70.375 43.959 59.113 C41.229 58.43 38.294 58.02 35.358 58.02 29.625 58.02 24.232 59.454 19.522 61.911 L19.659 77.338 Z"/><path id="Path-4" fill="#5b7db3" fill-opacity="1" stroke="none" d="M44.437 70.512 L73.993 77.543 74.403 77.406 74.266 61.775 74.061 37.816 58.157 34.061 C51.877 41.092 47.713 50.102 46.826 60 45.87 59.659 44.915 59.386 43.959 59.113 L44.027 70.375 Z"/><path id="Path-5" fill="#446ca9" fill-opacity="1" stroke="none" d="M75.085 74.198 C75.085 71.468 77.338 69.215 80.068 69.215 82.799 69.215 85.051 71.468 85.051 74.198 L85.051 74.334 98.567 70.375 98.908 70.444 98.567 30.717 79.249 36.382 74.198 37.884 74.403 61.843 74.539 77.474 76.041 77.065 C75.358 76.177 75.085 75.222 75.085 74.198 Z"/><path id="Path-6" fill="#303f7f" fill-opacity="1" stroke="none" d="M79.113 36.314 L98.43 30.648 98.43 30.58 115.904 25.461 C109.01 21.229 100.819 18.771 92.15 18.771 87.577 18.771 83.208 19.454 79.044 20.683 70.922 23.14 63.686 27.782 58.157 33.993 L74.061 37.747 Z"/><path id="Path-7" fill="#5b7db3" fill-opacity="1" stroke="none" d="M99.181 70.512 L110.444 73.174 C110.922 70.921 112.901 69.215 115.29 69.215 118.02 69.215 120.273 71.468 120.273 74.198 120.273 74.676 120.205 75.085 120.068 75.495 L128.669 77.543 129.079 77.406 129.01 61.775 128.805 37.816 98.567 30.648 98.43 30.648 98.43 30.717 98.771 70.444 Z"/><path id="Path-8" fill="#446ca9" fill-opacity="1" stroke="none" d="M129.01 61.775 L129.147 77.406 153.242 70.307 153.038 43.823 C147.031 43.754 139.522 45.802 134.744 48.123 134.539 47.509 134.266 46.962 134.061 46.348 132.765 43.276 131.058 40.341 129.147 37.611 L128.874 37.679 Z"/><path id="Path-9" fill="#375194" fill-opacity="1" stroke="none" d="M98.567 30.58 L128.805 37.747 129.078 37.679 C125.529 32.765 121.092 28.669 115.973 25.461 115.973 25.461 115.904 25.461 115.904 25.392 L98.43 30.512 Z"/><path id="Path-10" fill="#5b7db3" fill-opacity="1" stroke="none" d="M14.334 95.017 L1.024 91.877 1.024 92.287 C1.024 103.14 6.075 112.833 13.993 119.113 14.198 119.249 14.334 119.386 14.539 119.522 L14.539 118.976 Z"/><path id="Path-11" fill="#446ca9" fill-opacity="1" stroke="none" d="M19.454 93.515 L14.403 95.017 14.608 118.976 14.608 119.522 C20.341 123.891 27.44 126.485 35.154 126.485 L39.181 126.485 38.84 87.782 Z"/><path id="Path-12" fill="#303f7f" fill-opacity="1" stroke="none" d="M19.454 93.515 L38.771 87.85 38.771 87.782 73.72 77.543 73.993 77.474 44.437 70.512 44.027 70.444 43.686 70.307 19.59 77.406 19.181 77.543 18.908 77.611 2.526 82.389 2.526 82.457 C1.638 85.461 1.16 88.601 1.092 91.877 L14.403 95.017 Z"/><path id="Path-13" fill="#5b7db3" fill-opacity="1" stroke="none" d="M69.147 95.017 L38.908 87.85 38.771 87.782 38.771 87.85 39.113 126.553 69.42 126.553 69.352 118.976 Z"/><path id="Path-14" fill="#446ca9" fill-opacity="1" stroke="none" d="M76.519 92.833 L74.198 93.515 69.147 95.017 69.352 118.976 69.42 126.553 93.925 126.553 93.788 108.123 C85.529 106.621 78.908 100.683 76.519 92.833 Z"/><path id="Path-15" fill="#375194" fill-opacity="1" stroke="none" d="M98.498 86.348 L128.464 77.543 128.737 77.474 120.137 75.427 C120.137 75.495 120.137 75.495 120.068 75.563 119.454 77.611 117.543 79.113 115.358 79.113 112.628 79.113 110.375 76.86 110.375 74.13 110.375 73.857 110.444 73.584 110.444 73.242 L110.444 73.106 99.181 70.444 98.771 70.375 98.43 70.307 84.915 74.266 C84.915 74.403 84.915 74.539 84.846 74.676 84.573 77.201 82.526 79.181 79.932 79.181 78.362 79.181 76.928 78.43 76.041 77.27 75.973 77.133 75.836 77.065 75.768 76.997 L74.266 77.406 73.857 77.543 73.584 77.611 38.635 87.85 38.771 87.85 69.01 95.017 74.061 93.515 76.382 92.833 C75.768 90.785 75.427 88.601 75.427 86.348 Z"/><path id="Path-16" fill="#5b7db3" fill-opacity="1" stroke="none" d="M123.891 95.017 L118.498 93.72 C115.427 102.321 107.304 108.464 97.679 108.464 96.314 108.464 95.017 108.328 93.72 108.123 L93.857 126.553 124.164 126.553 124.096 118.976 Z"/><path id="Path-17" fill="#446ca9" fill-opacity="1" stroke="none" d="M129.01 93.515 L123.959 95.017 124.164 118.976 124.232 126.553 148.328 126.553 147.986 87.986 Z"/><path id="Path-18" fill="#303f7f" fill-opacity="1" stroke="none" d="M153.242 70.58 L153.242 70.375 129.215 77.406 128.805 77.543 128.532 77.611 98.567 86.416 119.863 86.416 C119.863 89.01 119.386 91.468 118.567 93.788 L123.959 95.085 129.01 93.584 147.986 88.055 147.986 87.918 182.935 77.679 153.584 70.717 Z"/><path id="Path-19" fill="#5b7db3" fill-opacity="1" stroke="none" d="M153.242 70.58 L153.515 70.648 182.867 77.611 183.345 77.474 183.618 77.406 183.481 61.911 183.413 55.017 C177.065 49.147 167.85 45.051 154.539 43.959 154.061 43.891 153.515 43.891 153.038 43.891 L153.242 70.375 Z"/><path id="Path-20" fill="#446ca9" fill-opacity="1" stroke="none" d="M183.618 77.406 L194.198 74.334 C193.038 69.42 191.126 64.71 188.259 60.546 186.894 58.567 185.324 56.724 183.481 55.085 L183.549 61.98 Z"/><path id="Path-21" fill="#5b7db3" fill-opacity="1" stroke="none" d="M178.567 119.044 L178.362 94.949 148.259 87.85 147.986 87.782 147.986 87.918 148.328 126.485 C149.352 126.416 150.922 126.416 153.106 126.485 L154.061 126.485 C155.973 126.553 157.747 126.553 159.386 126.485 170.99 126.212 176.177 124.3 178.157 123.276 178.362 123.14 178.567 123.072 178.703 123.003 Z"/><path id="Path-22" fill="#446ca9" fill-opacity="1" stroke="none" d="M178.362 95.017 L178.567 119.113 178.635 123.072 C178.908 122.935 179.044 122.799 179.113 122.73 L179.181 122.662 C185.597 118.498 193.72 110.375 195.29 94.949 195.427 93.311 195.563 91.604 195.631 89.898 L183.891 93.311 Z"/><path id="Path-23" fill="#375194" fill-opacity="1" stroke="none" d="M194.266 74.608 C194.266 74.471 194.198 74.403 194.198 74.266 L183.618 77.406 183.345 77.474 182.867 77.611 147.918 87.85 148.191 87.918 178.294 95.017 183.754 93.447 195.495 90.034 C195.7 84.915 195.358 79.659 194.266 74.608 Z"/><path id="Path-24" fill="#fff" fill-opacity="1" stroke="none" d="M115.358 69.215 C112.969 69.215 110.922 70.921 110.512 73.174 L110.512 73.311 C110.444 73.584 110.444 73.857 110.444 74.198 110.444 76.928 112.696 79.181 115.427 79.181 117.679 79.181 119.522 77.679 120.137 75.631 120.137 75.563 120.137 75.563 120.205 75.495 120.341 75.085 120.41 74.676 120.41 74.198 120.341 71.399 118.089 69.215 115.358 69.215 Z M80 69.215 C77.27 69.215 75.017 71.468 75.017 74.198 75.017 75.222 75.358 76.177 75.836 76.997 75.904 77.133 75.973 77.201 76.109 77.27 76.997 78.43 78.43 79.181 80 79.181 82.594 79.181 84.642 77.201 84.915 74.676 84.915 74.539 84.983 74.403 84.983 74.266 L84.983 74.13 C84.983 71.399 82.799 69.215 80 69.215 Z M98.703 86.348 L75.563 86.348 C75.563 88.601 75.904 90.785 76.519 92.833 78.908 100.683 85.529 106.621 93.72 108.123 95.017 108.328 96.314 108.464 97.679 108.464 107.304 108.464 115.495 102.321 118.498 93.72 119.317 91.399 119.795 88.942 119.795 86.348 Z"/></svg>