<?xml version="1.0" encoding="UTF-8"?>
<svg width="293px" height="293px" viewBox="0 0 293 293" xmlns="http://www.w3.org/2000/svg" xmlns:xlink="http://www.w3.org/1999/xlink" version="1.1">
 <!-- Generated by Pixelmator Pro 1.7.1 -->
 <path id="Path" d="M57.1 245.5 L58.9 245.5 66.5 262.3 64.5 262.3 62.5 257.9 53.4 257.9 51.4 262.3 49.5 262.3 Z M61.8 256.2 L58 247.7 54.2 256.2 Z M70.7 245.6 L72.6 245.6 78.7 254.7 84.8 245.6 86.7 245.6 86.7 262.3 84.8 262.3 84.8 248.8 78.7 257.7 78.6 257.7 72.5 248.8 72.5 262.3 70.7 262.3 Z M92.3 245.6 L99.4 245.6 C101.3 245.6 102.8 246.1 103.8 247.1 104.5 247.8 104.9 248.7 104.9 249.8 104.9 252 103.6 253.1 102.3 253.7 104.3 254.3 105.9 255.4 105.9 257.7 105.9 260.6 103.5 262.2 99.9 262.2 L92.5 262.2 92.5 245.6 Z M102.9 250 C102.9 248.4 101.6 247.3 99.2 247.3 L94.1 247.3 94.1 253 99 253 C101.4 253 102.9 252 102.9 250 Z M99.4 254.7 L94.1 254.7 94.1 260.6 99.7 260.6 C102.2 260.6 103.8 259.5 103.8 257.6 103.9 255.7 102.3 254.7 99.4 254.7 Z M116.3 245.5 L118.1 245.5 125.7 262.3 123.7 262.3 121.7 257.9 112.6 257.9 110.6 262.3 108.7 262.3 Z M121 256.2 L117.2 247.7 113.4 256.2 Z M128.5 259.8 L129.7 258.4 C131.4 260 133.1 260.8 135.4 260.8 137.6 260.8 139.1 259.6 139.1 258 139.1 256.5 138.3 255.6 134.8 254.8 131 254 129.2 252.7 129.2 250 129.2 247.4 131.5 245.5 134.7 245.5 137.1 245.5 138.9 246.2 140.6 247.5 L139.5 249 C138 247.7 136.4 247.2 134.7 247.2 132.5 247.2 131.2 248.4 131.2 249.9 131.2 251.5 132.1 252.4 135.7 253.1 139.4 253.9 141.1 255.3 141.1 257.8 141.1 260.7 138.7 262.5 135.4 262.5 132.7 262.5 130.5 261.6 128.5 259.8 Z M144.4 259.8 L145.6 258.4 C147.3 260 149 260.8 151.3 260.8 153.5 260.8 155 259.6 155 258 155 256.5 154.2 255.6 150.7 254.8 146.9 254 145.1 252.7 145.1 250 145.1 247.4 147.4 245.5 150.6 245.5 153 245.5 154.8 246.2 156.5 247.5 L155.4 249 C153.9 247.7 152.3 247.2 150.6 247.2 148.4 247.2 147.1 248.4 147.1 249.9 147.1 251.5 148 252.4 151.6 253.1 155.3 253.9 157 255.3 157 257.8 157 260.7 154.6 262.5 151.3 262.5 148.6 262.5 146.4 261.6 144.4 259.8 Z M167.5 245.5 L169.3 245.5 176.9 262.3 174.9 262.3 172.9 257.9 163.8 257.9 161.8 262.3 159.9 262.3 Z M172.1 256.2 L168.3 247.7 164.5 256.2 Z M181.1 245.6 L186.9 245.6 C192.1 245.6 195.7 249.2 195.7 253.9 195.7 258.6 192.1 262.2 186.9 262.2 L181.1 262.2 Z M183 247.3 L183 260.5 186.9 260.5 C191.1 260.5 193.8 257.6 193.8 254 193.8 250.3 191.1 247.4 186.9 247.4 L183 247.4 Z M199.9 254 C199.9 249.4 203.3 245.3 208.4 245.3 213.5 245.3 216.9 249.3 216.9 253.9 216.9 258.5 213.5 262.5 208.4 262.5 203.3 262.5 199.9 258.6 199.9 254 Z M214.9 254 C214.9 250.2 212.1 247.1 208.3 247.1 204.5 247.1 201.8 250.1 201.8 253.9 201.8 257.7 204.6 260.8 208.4 260.8 212.2 260.8 214.9 257.8 214.9 254 Z M221.8 245.6 L229 245.6 C231 245.6 232.7 246.2 233.7 247.3 234.5 248.1 235 249.3 235 250.6 235 253.4 233.1 255 230.5 255.5 L235.6 262.3 233.3 262.3 228.5 255.8 223.7 255.8 223.7 262.3 221.8 262.3 Z M228.8 254.1 C231.3 254.1 233.1 252.8 233.1 250.7 233.1 248.7 231.5 247.4 228.8 247.4 L223.7 247.4 223.7 254.2 228.8 254.2 Z" fill="#446ca9" fill-opacity="1" stroke="none"/>
 <g id="XMLID_1284_">
  <path id="XMLID_552_" d="M94.1 213.6 C95.6 213.6 96.8 213 97.8 211.8 L99.8 213.8 C98.2 215.6 96.4 216.4 94.3 216.4 92.2 216.4 90.4 215.7 89.1 214.4 87.7 213.1 87 211.4 87 209.3 87 207.3 87.7 205.6 89.1 204.2 90.5 202.8 92.2 202.2 94.2 202.2 96.5 202.2 98.3 203.1 99.9 204.8 L98 207 C97 205.8 95.8 205.2 94.4 205.2 93.2 205.2 92.3 205.6 91.4 206.3 90.6 207.1 90.2 208.1 90.2 209.3 90.2 210.6 90.6 211.6 91.4 212.4 92 213.2 93 213.6 94.1 213.6 Z" fill="#000000" fill-opacity="1" stroke="none"/>
  <path id="XMLID_550_" d="M102.1 216.3 L102.1 202.6 105.2 202.6 105.2 213.6 111 213.6 111 216.3 Z" fill="#000000" fill-opacity="1" stroke="none"/>
  <path id="XMLID_547_" d="M124.4 214.4 C123 215.8 121.3 216.4 119.3 216.4 117.3 216.4 115.6 215.7 114.2 214.4 112.8 213 112.1 211.4 112.1 209.3 112.1 207.3 112.8 205.6 114.2 204.2 115.6 202.8 117.3 202.2 119.3 202.2 121.3 202.2 123 202.9 124.4 204.2 125.8 205.6 126.5 207.2 126.5 209.3 126.5 211.4 125.8 213 124.4 214.4 Z M123.4 209.3 C123.4 208.1 123 207 122.2 206.2 121.4 205.3 120.4 204.9 119.3 204.9 118.2 204.9 117.2 205.3 116.4 206.2 115.6 207.1 115.2 208.1 115.2 209.3 115.2 210.5 115.6 211.6 116.4 212.4 117.2 213.3 118.1 213.7 119.3 213.7 120.4 213.7 121.4 213.3 122.2 212.4 123 211.6 123.4 210.6 123.4 209.3 Z" fill="#000000" fill-opacity="1" stroke="none"/>
  <path id="XMLID_545_" d="M132.7 212.7 C133.2 213.3 133.9 213.7 134.8 213.7 135.7 213.7 136.3 213.4 136.9 212.7 137.4 212.1 137.7 211.2 137.7 210.1 L137.7 202.5 140.8 202.5 140.8 210.2 C140.8 212.2 140.2 213.7 139.2 214.8 138.1 215.9 136.7 216.4 135 216.4 133.3 216.4 131.9 215.9 130.8 214.8 129.7 213.7 129.1 212.2 129.1 210.2 L129.1 202.5 132.2 202.5 132.2 210.1 C132 211.2 132.2 212.1 132.7 212.7 Z" fill="#000000" fill-opacity="1" stroke="none"/>
  <path id="XMLID_542_" d="M154.3 204.4 C155.6 205.6 156.3 207.3 156.3 209.4 156.3 211.5 155.7 213.2 154.4 214.5 153.1 215.7 151.2 216.4 148.6 216.4 L143.9 216.4 143.9 202.7 148.7 202.7 C151.1 202.6 153 203.2 154.3 204.4 Z M152.1 212.5 C152.9 211.8 153.2 210.8 153.2 209.4 153.2 208.1 152.8 207 152.1 206.3 151.3 205.6 150.2 205.2 148.6 205.2 L146.9 205.2 146.9 213.5 148.8 213.5 C150.3 213.6 151.3 213.2 152.1 212.5 Z" fill="#000000" fill-opacity="1" stroke="none"/>
  <path id="XMLID_540_" d="M173.7 202.6 L176.8 202.6 176.8 216.3 173.7 216.3 167.2 207.7 167.2 216.3 164.1 216.3 164.1 202.6 167 202.6 173.7 211.4 Z" fill="#000000" fill-opacity="1" stroke="none"/>
  <path id="XMLID_537_" d="M189.9 216.3 L188.6 213.3 182.8 213.3 181.5 216.3 178.2 216.3 184.1 202.6 187.1 202.6 193 216.3 Z M185.8 206.6 L184.1 210.6 187.5 210.6 Z" fill="#000000" fill-opacity="1" stroke="none"/>
  <path id="XMLID_535_" d="M199.6 205.2 L199.6 216.3 196.5 216.3 196.5 205.2 192.6 205.2 192.6 202.6 203.4 202.6 203.4 205.2 Z" fill="#000000" fill-opacity="1" stroke="none"/>
  <path id="XMLID_533_" d="M205.7 202.6 L208.8 202.6 208.8 216.3 205.7 216.3 Z" fill="#000000" fill-opacity="1" stroke="none"/>
  <path id="XMLID_531_" d="M217.2 211.3 L220.7 202.6 224 202.6 218.5 216.3 215.9 216.3 210.4 202.6 213.7 202.6 Z" fill="#000000" fill-opacity="1" stroke="none"/>
  <path id="XMLID_529_" d="M235.6 202.6 L235.6 205.3 228.8 205.3 228.8 208.1 234.9 208.1 234.9 210.7 228.8 210.7 228.8 213.5 235.8 213.5 235.8 216.2 225.7 216.2 225.7 202.5 235.6 202.5 Z" fill="#000000" fill-opacity="1" stroke="none"/>
  <path id="XMLID_527_" d="M90.5 228 C91.3 228 92 227.7 92.6 227 L93.7 228.1 C92.8 229.1 91.8 229.6 90.6 229.6 89.4 229.6 88.4 229.2 87.7 228.5 86.9 227.8 86.6 226.8 86.6 225.7 86.6 224.6 87 223.6 87.8 222.8 88.6 222 89.5 221.7 90.7 221.7 92 221.7 93 222.2 93.9 223.1 L92.8 224.3 C92.3 223.6 91.6 223.3 90.8 223.3 90.2 223.3 89.6 223.5 89.1 223.9 88.6 224.3 88.4 224.9 88.4 225.6 88.4 226.3 88.6 226.9 89 227.3 89.4 227.8 89.9 228 90.5 228 Z" fill="#000000" fill-opacity="1" stroke="none"/>
  <path id="XMLID_524_" d="M101.4 228.4 C100.6 229.2 99.7 229.5 98.5 229.5 97.4 229.5 96.4 229.1 95.6 228.4 94.8 227.6 94.4 226.7 94.4 225.6 94.4 224.5 94.8 223.5 95.6 222.8 96.4 222 97.3 221.7 98.5 221.7 99.6 221.7 100.6 222.1 101.4 222.8 102.2 223.6 102.6 224.5 102.6 225.6 102.6 226.7 102.1 227.7 101.4 228.4 Z M100.8 225.6 C100.8 224.9 100.6 224.3 100.1 223.8 99.7 223.3 99.1 223.1 98.5 223.1 97.9 223.1 97.3 223.3 96.9 223.8 96.5 224.3 96.2 224.9 96.2 225.6 96.2 226.3 96.4 226.9 96.9 227.3 97.3 227.8 97.9 228 98.5 228 99.1 228 99.7 227.8 100.1 227.3 100.6 226.9 100.8 226.3 100.8 225.6 Z" fill="#000000" fill-opacity="1" stroke="none"/>
  <path id="XMLID_522_" d="M110.9 224.6 L108.8 228.8 107.8 228.8 105.7 224.6 105.7 229.4 104 229.4 104 221.7 106.3 221.7 108.3 225.9 110.3 221.7 112.6 221.7 112.6 229.4 110.9 229.4 Z" fill="#000000" fill-opacity="1" stroke="none"/>
  <path id="XMLID_519_" d="M119.8 222.5 C120.3 223 120.6 223.7 120.6 224.6 120.6 225.5 120.3 226.2 119.8 226.7 119.2 227.1 118.4 227.4 117.3 227.4 L116.3 227.4 116.3 229.5 114.6 229.5 114.6 221.8 117.3 221.8 C118.4 221.8 119.2 222 119.8 222.5 Z M118.5 225.5 C118.7 225.3 118.8 224.9 118.8 224.5 118.8 224.1 118.7 223.7 118.4 223.6 118.1 223.4 117.7 223.3 117.2 223.3 L116.2 223.3 116.2 225.9 117.4 225.9 C117.9 225.9 118.3 225.7 118.5 225.5 Z" fill="#000000" fill-opacity="1" stroke="none"/>
  <path id="XMLID_517_" d="M124 227.5 C124.3 227.9 124.7 228 125.2 228 125.7 228 126.1 227.8 126.3 227.5 126.6 227.1 126.7 226.7 126.7 226 L126.7 221.8 128.4 221.8 128.4 226.1 C128.4 227.2 128.1 228.1 127.5 228.7 126.9 229.3 126.1 229.6 125.1 229.6 124.1 229.6 123.3 229.3 122.7 228.7 122.1 228.1 121.8 227.2 121.8 226.1 L121.8 221.8 123.5 221.8 123.5 226 C123.5 226.7 123.7 227.1 124 227.5 Z" fill="#000000" fill-opacity="1" stroke="none"/>
  <path id="XMLID_515_" d="M133.5 223.3 L133.5 229.5 131.8 229.5 131.8 223.3 129.6 223.3 129.6 221.8 135.7 221.8 135.7 223.3 Z" fill="#000000" fill-opacity="1" stroke="none"/>
  <path id="XMLID_513_" d="M136.9 221.8 L138.6 221.8 138.6 229.5 136.9 229.5 Z" fill="#000000" fill-opacity="1" stroke="none"/>
  <path id="XMLID_511_" d="M145.9 221.8 L147.6 221.8 147.6 229.5 145.9 229.5 142.2 224.7 142.2 229.5 140.5 229.5 140.5 221.8 142.1 221.8 145.9 226.8 Z" fill="#000000" fill-opacity="1" stroke="none"/>
  <path id="XMLID_509_" d="M154.5 225.6 L156.2 225.6 156.2 228.3 C155.4 229.2 154.4 229.6 153 229.6 151.9 229.6 150.9 229.2 150.2 228.5 149.4 227.8 149.1 226.8 149.1 225.7 149.1 224.6 149.5 223.6 150.3 222.8 151.1 222 152 221.7 153.1 221.7 154.2 221.7 155.2 222.1 156 222.8 L155 224 C154.7 223.7 154.3 223.5 154 223.4 153.7 223.3 153.4 223.2 153.1 223.2 152.4 223.2 151.9 223.4 151.4 223.9 151 224.3 150.7 224.9 150.7 225.7 150.7 226.4 150.9 227 151.3 227.4 151.7 227.8 152.2 228.1 152.8 228.1 153.4 228.1 153.9 228 154.3 227.8 L154.3 225.6 Z" fill="#000000" fill-opacity="1" stroke="none"/>
  <path id="XMLID_507_" d="M165.9 221.8 L165.9 223.3 162.3 223.3 162.3 225 165.7 225 165.7 226.5 162.3 226.5 162.3 229.5 160.6 229.5 160.6 221.8 Z" fill="#000000" fill-opacity="1" stroke="none"/>
  <path id="XMLID_504_" d="M173.8 228.4 C173 229.2 172.1 229.5 170.9 229.5 169.8 229.5 168.8 229.1 168 228.4 167.2 227.6 166.8 226.7 166.8 225.6 166.8 224.5 167.2 223.5 168 222.8 168.8 222 169.7 221.7 170.9 221.7 172 221.7 173 222.1 173.8 222.8 174.6 223.6 175 224.5 175 225.6 175 226.7 174.6 227.7 173.8 228.4 Z M173.3 225.6 C173.3 224.9 173.1 224.3 172.6 223.8 172.2 223.3 171.6 223.1 171 223.1 170.4 223.1 169.8 223.3 169.4 223.8 169 224.3 168.7 224.9 168.7 225.6 168.7 226.3 168.9 226.9 169.4 227.3 169.8 227.8 170.4 228 171 228 171.6 228 172.2 227.8 172.6 227.3 173 226.9 173.3 226.3 173.3 225.6 Z" fill="#000000" fill-opacity="1" stroke="none"/>
  <path id="XMLID_502_" d="M178.5 227.5 C178.8 227.9 179.2 228 179.7 228 180.2 228 180.6 227.8 180.8 227.5 181.1 227.1 181.2 226.7 181.2 226 L181.2 221.8 182.9 221.8 182.9 226.1 C182.9 227.2 182.6 228.1 182 228.7 181.4 229.3 180.6 229.6 179.6 229.6 178.6 229.6 177.8 229.3 177.2 228.7 176.6 228.1 176.3 227.2 176.3 226.1 L176.3 221.8 178 221.8 178 226 C178.1 226.7 178.2 227.1 178.5 227.5 Z" fill="#000000" fill-opacity="1" stroke="none"/>
  <path id="XMLID_500_" d="M190.1 221.8 L191.8 221.8 191.8 229.5 190.1 229.5 186.4 224.7 186.4 229.5 184.7 229.5 184.7 221.8 186.3 221.8 190.1 226.8 Z" fill="#000000" fill-opacity="1" stroke="none"/>
  <path id="XMLID_497_" d="M199.6 222.8 C200.3 223.5 200.7 224.4 200.7 225.6 200.7 226.8 200.3 227.7 199.6 228.4 198.9 229.1 197.8 229.4 196.3 229.4 L193.7 229.4 193.7 221.7 196.4 221.7 C197.8 221.8 198.9 222.1 199.6 222.8 Z M198.3 227.4 C198.7 227 198.9 226.4 198.9 225.7 198.9 224.9 198.7 224.4 198.3 224 197.9 223.6 197.2 223.4 196.4 223.4 L195.4 223.4 195.4 228.1 196.5 228.1 C197.3 228 197.9 227.8 198.3 227.4 Z" fill="#000000" fill-opacity="1" stroke="none"/>
  <path id="XMLID_494_" d="M207.4 229.5 L206.7 227.8 203.5 227.8 202.8 229.5 201 229.5 204.3 221.8 206 221.8 209.3 229.5 Z M205.1 224.1 L204.1 226.3 206 226.3 Z" fill="#000000" fill-opacity="1" stroke="none"/>
  <path id="XMLID_492_" d="M212.9 223.3 L212.9 229.5 211.2 229.5 211.2 223.3 209 223.3 209 221.8 215.1 221.8 215.1 223.3 Z" fill="#000000" fill-opacity="1" stroke="none"/>
  <path id="XMLID_490_" d="M216.3 221.8 L218 221.8 218 229.5 216.3 229.5 Z" fill="#000000" fill-opacity="1" stroke="none"/>
  <path id="XMLID_487_" d="M226.4 228.4 C225.6 229.2 224.7 229.5 223.5 229.5 222.4 229.5 221.4 229.1 220.6 228.4 219.8 227.6 219.4 226.7 219.4 225.6 219.4 224.5 219.8 223.5 220.6 222.8 221.4 222 222.3 221.7 223.5 221.7 224.6 221.7 225.6 222.1 226.4 222.8 227.2 223.6 227.6 224.5 227.6 225.6 227.6 226.7 227.1 227.7 226.4 228.4 Z M225.8 225.6 C225.8 224.9 225.6 224.3 225.1 223.8 224.7 223.3 224.1 223.1 223.5 223.1 222.9 223.1 222.3 223.3 221.9 223.8 221.5 224.3 221.2 224.9 221.2 225.6 221.2 226.3 221.4 226.9 221.9 227.3 222.3 227.8 222.9 228 223.5 228 224.1 228 224.7 227.8 225.1 227.3 225.6 226.9 225.8 226.3 225.8 225.6 Z" fill="#000000" fill-opacity="1" stroke="none"/>
  <path id="XMLID_485_" d="M234.4 221.8 L236.1 221.8 236.1 229.5 234.4 229.5 230.7 224.7 230.7 229.5 229 229.5 229 221.8 230.6 221.8 234.4 226.8 Z" fill="#000000" fill-opacity="1" stroke="none"/>
 </g>
 <g id="XMLID_1279_">
  <path id="XMLID_1283_" d="M54 220.4 L49.8 220.4 49.8 230.2 59.7 230.2 59.7 226 54 226 Z" fill="#446ca9" fill-opacity="1" stroke="none"/>
  <path id="XMLID_1282_" d="M75.1 220.4 L75.1 226 69.5 226 69.5 230.2 79.4 230.2 79.4 220.4 Z" fill="#446ca9" fill-opacity="1" stroke="none"/>
  <path id="XMLID_1281_" d="M49.8 210.5 L54.1 210.5 54 210.5 54 204.9 59.7 204.9 59.7 200.7 49.8 200.7 Z" fill="#446ca9" fill-opacity="1" stroke="none"/>
  <path id="XMLID_1280_" d="M69.5 200.7 L69.5 204.9 75.1 204.9 75.1 210.5 79.4 210.5 79.4 200.7 Z" fill="#446ca9" fill-opacity="1" stroke="none"/>
 </g>
 <g id="XMLID_1274_">
  <path id="XMLID_1278_" d="M69 210.5 L63.4 204.9 69.5 204.9 69.5 200.7 59.7 200.7 59.7 204.9 65.3 210.5 Z" fill="#76c4d5" fill-opacity="1" stroke="none"/>
  <path id="XMLID_1277_" d="M63.9 220.4 L60.2 220.4 64.8 225 65.8 226 59.7 226 59.7 230.2 69.5 230.2 69.5 226 66.7 223.2 Z" fill="#76c4d5" fill-opacity="1" stroke="none"/>
  <path id="XMLID_1276_" d="M75.1 210.5 L75.1 216.7 74.2 215.7 69.5 211 69.5 214.8 72.3 217.6 75.1 220.4 79.4 220.4 79.4 210.5 Z" fill="#76c4d5" fill-opacity="1" stroke="none"/>
  <path id="XMLID_1275_" d="M59.7 216.1 L54.1 210.5 49.8 210.5 49.8 220.4 54 220.4 54 214.2 59.7 219.9 Z" fill="#76c4d5" fill-opacity="1" stroke="none"/>
 </g>
 <path id="Path-1" d="M8.8 109.2 C6.6 112.8 4.9 116.6 3.7 120.7 L27.7 113.7 Z" fill="#375194" fill-opacity="1" stroke="none"/>
 <path id="Path-2" d="M28.1 113.5 L28.7 113.3 28.5 90.7 C20.5 94.9 13.7 101.3 9 109 9 109.1 8.9 109.1 8.9 109.2 L27.8 113.7 Z" fill="#5b7db3" fill-opacity="1" stroke="none"/>
 <path id="Path-3" d="M64 103 L64.5 103.1 64.4 86.6 C60.4 85.6 56.1 85 51.8 85 43.4 85 35.5 87.1 28.6 90.7 L28.8 113.3 Z" fill="#446ca9" fill-opacity="1" stroke="none"/>
 <path id="Path-4" d="M65.1 103.3 L108.4 113.6 109 113.4 108.8 90.5 108.5 55.4 85.2 49.9 C76 60.2 69.9 73.4 68.6 87.9 67.2 87.4 65.8 87 64.4 86.6 L64.5 103.1 Z" fill="#5b7db3" fill-opacity="1" stroke="none"/>
 <path id="Path-5" d="M110 108.7 C110 104.7 113.3 101.4 117.3 101.4 121.3 101.4 124.6 104.7 124.6 108.7 L124.6 108.9 144.4 103.1 144.9 103.2 144.4 45 116.1 53.3 108.7 55.5 109 90.6 109.2 113.5 111.4 112.9 C110.4 111.6 110 110.2 110 108.7 Z" fill="#446ca9" fill-opacity="1" stroke="none"/>
 <path id="Path-6" d="M115.9 53.2 L144.2 44.9 144.2 44.8 169.8 37.3 C159.7 31.1 147.7 27.5 135 27.5 128.3 27.5 121.9 28.5 115.8 30.3 103.9 33.9 93.3 40.7 85.2 49.8 L108.5 55.3 Z" fill="#303f7f" fill-opacity="1" stroke="none"/>
 <path id="Path-7" d="M145.3 103.3 L161.8 107.2 C162.5 103.9 165.4 101.4 168.9 101.4 172.9 101.4 176.2 104.7 176.2 108.7 176.2 109.4 176.1 110 175.9 110.6 L188.5 113.6 189.1 113.4 189 90.5 188.7 55.4 144.4 44.9 144.2 44.9 144.2 45 144.7 103.2 Z" fill="#5b7db3" fill-opacity="1" stroke="none"/>
 <path id="Path-8" d="M189 90.5 L189.2 113.4 224.5 103 224.2 64.2 C215.4 64.1 204.4 67.1 197.4 70.5 197.1 69.6 196.7 68.8 196.4 67.9 194.5 63.4 192 59.1 189.2 55.1 L188.8 55.2 Z" fill="#446ca9" fill-opacity="1" stroke="none"/>
 <path id="Path-9" d="M144.4 44.8 L188.7 55.3 189.1 55.2 C183.9 48 177.4 42 169.9 37.3 169.9 37.3 169.8 37.3 169.8 37.2 L144.2 44.7 Z" fill="#375194" fill-opacity="1" stroke="none"/>
 <path id="Path-10" d="M21 139.2 L1.5 134.6 1.5 135.2 C1.5 151.1 8.9 165.3 20.5 174.5 20.8 174.7 21 174.9 21.3 175.1 L21.3 174.3 Z" fill="#5b7db3" fill-opacity="1" stroke="none"/>
 <path id="Path-11" d="M28.5 137 L21.1 139.2 21.4 174.3 21.4 175.1 C29.8 181.5 40.2 185.3 51.5 185.3 L57.4 185.3 56.9 128.6 Z" fill="#446ca9" fill-opacity="1" stroke="none"/>
 <path id="Path-12" d="M28.5 137 L56.8 128.7 56.8 128.6 108 113.6 108.4 113.5 65.1 103.3 64.5 103.2 64 103 28.7 113.4 28.1 113.6 27.7 113.7 3.7 120.7 3.7 120.8 C2.4 125.2 1.7 129.8 1.6 134.6 L21.1 139.2 Z" fill="#303f7f" fill-opacity="1" stroke="none"/>
 <path id="Path-13" d="M101.3 139.2 L57 128.7 56.8 128.6 56.8 128.7 57.3 185.4 101.7 185.4 101.6 174.3 Z" fill="#5b7db3" fill-opacity="1" stroke="none"/>
 <path id="Path-14" d="M112.1 136 L108.7 137 101.3 139.2 101.6 174.3 101.7 185.4 137.6 185.4 137.4 158.4 C125.3 156.2 115.6 147.5 112.1 136 Z" fill="#446ca9" fill-opacity="1" stroke="none"/>
 <path id="Path-15" d="M144.3 126.5 L188.2 113.6 188.6 113.5 176 110.5 C176 110.6 176 110.6 175.9 110.7 175 113.7 172.2 115.9 169 115.9 165 115.9 161.7 112.6 161.7 108.6 161.7 108.2 161.8 107.8 161.8 107.3 L161.8 107.1 145.3 103.2 144.7 103.1 144.2 103 124.4 108.8 C124.4 109 124.4 109.2 124.3 109.4 123.9 113.1 120.9 116 117.1 116 114.8 116 112.7 114.9 111.4 113.2 111.3 113 111.1 112.9 111 112.8 L108.8 113.4 108.2 113.6 107.8 113.7 56.6 128.7 56.8 128.7 101.1 139.2 108.5 137 111.9 136 C111 133 110.5 129.8 110.5 126.5 Z" fill="#375194" fill-opacity="1" stroke="none"/>
 <path id="Path-16" d="M181.5 139.2 L173.6 137.3 C169.1 149.9 157.2 158.9 143.1 158.9 141.1 158.9 139.2 158.7 137.3 158.4 L137.5 185.4 181.9 185.4 181.8 174.3 Z" fill="#5b7db3" fill-opacity="1" stroke="none"/>
 <path id="Path-17" d="M189 137 L181.6 139.2 181.9 174.3 182 185.4 217.3 185.4 216.8 128.9 Z" fill="#446ca9" fill-opacity="1" stroke="none"/>
 <path id="Path-18" d="M224.5 103.4 L224.5 103.1 189.3 113.4 188.7 113.6 188.3 113.7 144.4 126.6 175.6 126.6 C175.6 130.4 174.9 134 173.7 137.4 L181.6 139.3 189 137.1 216.8 129 216.8 128.8 268 113.8 225 103.6 Z" fill="#303f7f" fill-opacity="1" stroke="none"/>
 <path id="Path-19" d="M224.5 103.4 L224.9 103.5 267.9 113.7 268.6 113.5 269 113.4 268.8 90.7 268.7 80.6 C259.4 72 245.9 66 226.4 64.4 225.7 64.3 224.9 64.3 224.2 64.3 L224.5 103.1 Z" fill="#5b7db3" fill-opacity="1" stroke="none"/>
 <path id="Path-20" d="M269 113.4 L284.5 108.9 C282.8 101.7 280 94.8 275.8 88.7 273.8 85.8 271.5 83.1 268.8 80.7 L268.9 90.8 Z" fill="#446ca9" fill-opacity="1" stroke="none"/>
 <path id="Path-21" d="M261.6 174.4 L261.3 139.1 217.2 128.7 216.8 128.6 216.8 128.8 217.3 185.3 C218.8 185.2 221.1 185.2 224.3 185.3 L225.7 185.3 C228.5 185.4 231.1 185.4 233.5 185.3 250.5 184.9 258.1 182.1 261 180.6 261.3 180.4 261.6 180.3 261.8 180.2 Z" fill="#5b7db3" fill-opacity="1" stroke="none"/>
 <path id="Path-22" d="M261.3 139.2 L261.6 174.5 261.7 180.3 C262.1 180.1 262.3 179.9 262.4 179.8 L262.5 179.7 C271.9 173.6 283.8 161.7 286.1 139.1 286.3 136.7 286.5 134.2 286.6 131.7 L269.4 136.7 Z" fill="#446ca9" fill-opacity="1" stroke="none"/>
 <path id="Path-23" d="M284.6 109.3 C284.6 109.1 284.5 109 284.5 108.8 L269 113.4 268.6 113.5 267.9 113.7 216.7 128.7 217.1 128.8 261.2 139.2 269.2 136.9 286.4 131.9 C286.7 124.4 286.2 116.7 284.6 109.3 Z" fill="#375194" fill-opacity="1" stroke="none"/>
 <path id="Path-24" d="M169 101.4 C165.5 101.4 162.5 103.9 161.9 107.2 L161.9 107.4 C161.8 107.8 161.8 108.2 161.8 108.7 161.8 112.7 165.1 116 169.1 116 172.4 116 175.1 113.8 176 110.8 176 110.7 176 110.7 176.1 110.6 176.3 110 176.4 109.4 176.4 108.7 176.3 104.6 173 101.4 169 101.4 Z M117.2 101.4 C113.2 101.4 109.9 104.7 109.9 108.7 109.9 110.2 110.4 111.6 111.1 112.8 111.2 113 111.3 113.1 111.5 113.2 112.8 114.9 114.9 116 117.2 116 121 116 124 113.1 124.4 109.4 124.4 109.2 124.5 109 124.5 108.8 L124.5 108.6 C124.5 104.6 121.3 101.4 117.2 101.4 Z M144.6 126.5 L110.7 126.5 C110.7 129.8 111.2 133 112.1 136 115.6 147.5 125.3 156.2 137.3 158.4 139.2 158.7 141.1 158.9 143.1 158.9 157.2 158.9 169.2 149.9 173.6 137.3 174.8 133.9 175.5 130.3 175.5 126.5 Z" fill="#ffffff" fill-opacity="1" stroke="none"/>
</svg>
