<?xml version="1.0" encoding="UTF-8"?>
<svg width="600px" height="600px" viewBox="0 0 600 600" xmlns="http://www.w3.org/2000/svg" xmlns:xlink="http://www.w3.org/1999/xlink" version="1.1">
 <!-- Generated by Pixelmator Pro 1.7.1 -->
 <g id="group">
  <g id="group-1">
   <path id="Path" d="M158.9 297.9 C158.9 300.9 158 303.2 156.3 304.8 154.6 306.4 152.1 307.2 148.9 307.2 L143.7 307.2 143.7 288.9 149.5 288.9 C152.5 288.9 154.8 289.7 156.5 291.3 158.1 292.9 158.9 295.1 158.9 297.9 Z M154.9 298 C154.9 294.1 153.2 292.1 149.7 292.1 L147.6 292.1 147.6 304 149.3 304 C153 304 154.9 302 154.9 298 Z" fill="#353535" fill-opacity="1" stroke="none"/>
   <path id="Path-1" d="M175.2 307.2 L164.7 307.2 164.7 288.9 175.2 288.9 175.2 292.1 168.5 292.1 168.5 296.1 174.7 296.1 174.7 299.3 168.5 299.3 168.5 304 175.2 304 Z" fill="#353535" fill-opacity="1" stroke="none"/>
   <path id="Path-2" d="M191.4 288.9 L195.3 288.9 189.1 307.2 184.9 307.2 178.7 288.9 182.6 288.9 186 299.8 C186.2 300.4 186.4 301.2 186.6 302 186.8 302.9 186.9 303.5 187 303.8 187.1 303 187.4 301.7 187.9 299.8 Z" fill="#353535" fill-opacity="1" stroke="none"/>
  </g>
  <g id="group-2">
   <path id="Path-3" d="M421.4 298.1 C421.4 301.1 420.6 303.5 419.1 305.1 417.6 306.7 415.4 307.5 412.6 307.5 409.8 307.5 407.6 306.7 406.1 305.1 404.6 303.5 403.8 301.1 403.8 298.1 403.8 295.1 404.6 292.7 406.1 291.1 407.6 289.5 409.8 288.7 412.6 288.7 415.4 288.7 417.6 289.5 419.1 291.1 420.6 292.7 421.4 295 421.4 298.1 Z M408 298.1 C408 300.1 408.4 301.7 409.2 302.7 410 303.7 411.1 304.3 412.7 304.3 415.8 304.3 417.3 302.2 417.3 298.1 417.3 294 415.8 291.9 412.7 291.9 411.2 291.9 410 292.4 409.2 293.5 408.4 294.5 408 296 408 298.1 Z" fill="#353535" fill-opacity="1" stroke="none"/>
   <path id="Path-4" d="M439.8 294.6 C439.8 296.6 439.2 298.1 438 299.1 436.8 300.1 435 300.7 432.7 300.7 L431 300.7 431 307.2 427.1 307.2 427.1 288.9 433 288.9 C435.2 288.9 436.9 289.4 438.1 290.3 439.2 291.3 439.8 292.7 439.8 294.6 Z M431 297.5 L432.3 297.5 C433.5 297.5 434.4 297.3 435 296.8 435.6 296.3 435.9 295.6 435.9 294.7 435.9 293.8 435.7 293.1 435.2 292.7 434.7 292.3 433.9 292 432.9 292 L431 292 Z" fill="#353535" fill-opacity="1" stroke="none"/>
   <path id="Path-5" d="M456 302.1 C456 303.8 455.4 305.1 454.2 306 453 307 451.4 307.4 449.2 307.4 447.2 307.4 445.5 307 444 306.3 L444 302.7 C445.2 303.3 446.3 303.6 447.1 303.9 448 304.1 448.7 304.2 449.4 304.2 450.3 304.2 450.9 304 451.4 303.7 451.9 303.4 452.1 302.9 452.1 302.2 452.1 301.8 452 301.5 451.8 301.2 451.6 300.9 451.3 300.7 450.9 300.4 450.5 300.1 449.7 299.7 448.5 299.2 447.4 298.7 446.5 298.2 446 297.7 445.5 297.2 445 296.7 444.7 296 444.4 295.4 444.2 294.6 444.2 293.7 444.2 292.1 444.7 290.8 445.8 289.9 446.9 289 448.4 288.5 450.4 288.5 451.4 288.5 452.3 288.6 453.1 288.8 454 289 454.9 289.3 455.8 289.8 L454.5 292.8 C453.5 292.4 452.7 292.1 452.1 292 451.5 291.8 450.8 291.8 450.2 291.8 449.5 291.8 448.9 292 448.5 292.3 448.1 292.6 447.9 293.1 447.9 293.6 447.9 293.9 448 294.2 448.1 294.5 448.3 294.8 448.5 295 448.9 295.2 449.2 295.4 450.1 295.9 451.4 296.5 453.1 297.3 454.3 298.1 454.9 299 455.5 299.9 456 301 456 302.1 Z" fill="#353535" fill-opacity="1" stroke="none"/>
  </g>
  <g id="group-3">
   <path id="Path-6" d="M180.2 205.6 C227.6 211 264.4 251.2 264.4 300 264.4 261.2 277.7 225.4 300 197.1 271.6 161.1 228.7 137.2 180.2 134 L166.3 169.8 Z" fill="#19838e" fill-opacity="1" stroke="none"/>
  </g>
  <g id="group-4">
   <path id="Path-7" d="M159.3 394.5 C111.5 389.5 74.3 349.1 74.3 300 74.3 299.5 74.3 298.9 74.3 298.4 L39.1 312.1 3 298.1 3 300 C3 388.6 72.3 461 159.6 466 L173.3 430.6 Z" fill="#3737aa" fill-opacity="1" stroke="none"/>
  </g>
  <g id="group-5"/>
  <g id="group-6">
   <path id="Path-8" d="M335.7 303.5 C335.7 302.3 335.6 301.2 335.6 300 L335.6 303.5 Z" fill="#353535" fill-opacity="1" stroke="none"/>
  </g>
  <g id="group-7">
   <path id="Path-9" d="M74.7 291.1 C79.2 242.8 119.8 204.9 169.3 204.9 170.5 204.9 171.6 204.9 172.8 205 L159.1 169.8 173.1 133.7 C171.8 133.7 170.5 133.7 169.3 133.7 80.5 133.7 7.9 203.3 3.2 291 L39.1 304.9 Z" fill="#8b9b29" fill-opacity="1" stroke="none"/>
  </g>
  <g id="group-8">
   <path id="Path-10" d="M266 310.3 L264.7 310.8 Z" fill="none" stroke="none"/>
  </g>
  <g id="group-9">
   <g id="group-10">
    <path id="Path-11" d="M264.7 310.8 L264.7 310.7 Z" fill="#3fa9f5" fill-opacity="1" stroke="none"/>
   </g>
   <g id="group-11">
    <path id="Path-12" d="M335.3 310.5 L300.5 297 266.5 310.2 266 310.4 264.7 310.9 264.7 311 263.7 311.4 C258.1 358.6 218 395.2 169.3 395.2 168.4 395.2 167.5 395.2 166.6 395.2 L180.4 430.9 166.6 466.5 169.3 466.5 C222.3 466.5 269.5 441.7 300 403.1 L300 403 C320.3 377.1 333.1 345.2 335.3 310.5 Z" fill="#3fa9f5" fill-opacity="1" stroke="none"/>
   </g>
   <g id="group-12"/>
  </g>
  <g id="group-13">
   <g id="group-14"/>
   <g id="group-15">
    <path id="Path-13" d="M264.4 303.9 C264.4 303.8 264.4 303.9 264.4 303.9 Z" fill="#f15a24" fill-opacity="1" stroke="none"/>
   </g>
   <g id="group-16">
    <path id="Path-14" d="M458.8 136.1 C449.6 134.5 440.2 133.7 430.7 133.7 377.7 133.7 330.5 158.5 300 197.1 277.7 225.4 264.4 261.1 264.4 300 L264.4 303.8 300.5 289.8 335.6 303.4 C335.6 302.2 335.6 301.1 335.6 299.9 335.6 247.4 378.2 204.9 430.6 204.9 434.9 204.9 439.1 205.2 443.3 205.7 L464.4 174.4 Z" fill="#f15a24" fill-opacity="1" stroke="none"/>
   </g>
  </g>
  <g id="group-17">
   <path id="Path-15" d="M594.5 328.8 C596.1 319.4 597 309.8 597 300 597 220.2 540.8 153.5 465.7 137.4 L471.4 176.1 450.5 207.1 C493.5 216.2 525.7 254.4 525.7 300.1 525.7 304.3 525.4 308.5 524.9 312.6 L557.1 334.4 Z" fill="#9263ab" fill-opacity="1" stroke="none"/>
  </g>
  <g id="group-18">
   <path id="Path-16" d="M523.7 319.7 C514.6 362.7 476.4 395.1 430.7 395.1 426.5 395.1 422.4 394.8 418.3 394.3 L396.4 427 402 463.9 C411.3 465.5 420.9 466.4 430.7 466.4 510.3 466.4 576.8 410.5 593.2 335.8 L555.6 341.3 Z" fill="#aa2e2e" fill-opacity="1" stroke="none"/>
  </g>
  <g id="group-19">
   <path id="Path-17" d="M411.1 393 C371.4 384.7 340.9 351.7 336.2 310.8 L335.3 310.4 C333.1 345.2 320.3 377.1 300 402.8 323.4 432.5 356.8 454 395 462.4 L389.4 425.3 Z" fill="#19838e" fill-opacity="1" stroke="none"/>
  </g>
  <g id="group-20">
   <path id="Path-18" d="M327.8 224.9 L330.9 227.2 329.6 228.9 321.4 222.8 323.2 220.4 C324 219.3 324.8 218.6 325.6 218.4 326.4 218.2 327.2 218.4 328 219 328.5 219.4 328.8 219.8 329 220.4 329.2 220.9 329.2 221.5 329 222.2 331.8 222.3 333.5 222.4 334.4 222.5 L333 224.4 328.4 224 Z M326.4 223.8 L326.8 223.2 C327.2 222.7 327.4 222.2 327.4 221.8 327.4 221.4 327.2 221.1 326.8 220.8 326.4 220.5 326 220.4 325.7 220.6 325.3 220.7 324.9 221.1 324.5 221.7 L324.1 222.2 Z" fill="#ffffff" fill-opacity="1" stroke="none"/>
   <path id="Path-19" d="M339.8 216.4 L335.9 220.8 328.2 214.1 332.1 209.7 333.4 210.9 331 213.7 332.7 215.2 335 212.6 336.3 213.8 334 216.4 336 218.1 338.4 215.3 Z" fill="#ffffff" fill-opacity="1" stroke="none"/>
   <path id="Path-20" d="M341.9 214.2 L334.7 206.9 336.2 205.4 342.1 211.4 345 208.5 346.3 209.8 Z" fill="#ffffff" fill-opacity="1" stroke="none"/>
   <path id="Path-21" d="M352.9 204.2 L348.4 208 341.8 200.2 346.3 196.4 347.5 197.7 344.7 200.1 346.2 201.8 348.8 199.6 350 200.9 347.4 203.1 349.1 205.1 351.9 202.7 Z" fill="#ffffff" fill-opacity="1" stroke="none"/>
   <path id="Path-22" d="M360.3 198.6 L358.3 197.1 355.3 199.3 356.1 201.7 354.2 203.1 351.1 192.7 353.2 191.1 362.1 197.3 Z M356.8 195.9 C355 194.5 353.9 193.7 353.7 193.6 353.5 193.4 353.3 193.3 353.1 193.2 353.3 193.8 353.8 195.2 354.6 197.5 Z" fill="#ffffff" fill-opacity="1" stroke="none"/>
   <path id="Path-23" d="M367.6 190.6 C368.1 191.4 368.2 192.2 367.9 193 367.6 193.8 367 194.5 366 195.1 365.1 195.7 364.1 196 363.2 196.1 L362.2 194.4 C362.9 194.3 363.6 194.2 364 194 364.5 193.9 364.9 193.7 365.2 193.5 365.6 193.3 365.9 193 366 192.7 366.1 192.4 366.1 192.1 365.9 191.8 365.8 191.6 365.7 191.5 365.5 191.4 365.3 191.3 365.1 191.3 364.8 191.3 364.5 191.3 364 191.3 363.3 191.4 362.6 191.5 362.1 191.5 361.7 191.4 361.3 191.3 360.9 191.2 360.6 191 360.3 190.8 360 190.5 359.7 190.1 359.2 189.3 359.1 188.6 359.4 187.8 359.7 187 360.2 186.4 361.2 185.8 361.7 185.5 362.1 185.3 362.6 185.2 363.1 185.1 363.6 184.9 364.2 184.9 L364.5 186.7 C363.9 186.8 363.5 186.9 363.1 187 362.8 187.1 362.4 187.3 362.1 187.4 361.8 187.6 361.5 187.9 361.4 188.1 361.3 188.4 361.3 188.6 361.5 188.9 361.6 189.1 361.7 189.2 361.9 189.3 362.1 189.4 362.2 189.4 362.5 189.4 362.8 189.4 363.2 189.4 364 189.3 365.1 189.2 365.8 189.2 366.4 189.4 366.9 189.6 367.3 190 367.6 190.6 Z" fill="#ffffff" fill-opacity="1" stroke="none"/>
   <path id="Path-24" d="M376.8 188.9 L371.6 191.6 366.9 182.5 372.1 179.8 372.9 181.4 369.6 183.1 370.6 185.1 373.7 183.5 374.5 185.1 371.4 186.7 372.6 189 375.9 187.3 Z" fill="#ffffff" fill-opacity="1" stroke="none"/>
  </g>
  <g id="group-21">
   <path id="Path-25" d="M233.1 186.1 C232.6 187.1 231.9 187.7 231 187.9 230.1 188.1 229.1 187.9 228 187.3 L227.2 186.9 225.5 190.1 223.6 189.1 228.3 180.1 231.2 181.6 C232.3 182.2 233 182.8 233.3 183.6 233.6 184.3 233.5 185.2 233.1 186.1 Z M228 185.3 L228.6 185.6 C229.2 185.9 229.7 186 230.1 185.9 230.5 185.8 230.8 185.6 231.1 185.1 231.3 184.6 231.4 184.3 231.3 183.9 231.2 183.6 230.8 183.3 230.3 183 L229.4 182.5 Z" fill="#ffffff" fill-opacity="1" stroke="none"/>
   <path id="Path-26" d="M232.2 193.8 L237.6 185.1 239.4 186.2 235 193.3 238.5 195.5 237.6 197 Z" fill="#ffffff" fill-opacity="1" stroke="none"/>
   <path id="Path-27" d="M244.8 202.3 L245.6 199.9 242.6 197.7 240.6 199.2 238.7 197.8 247.7 191.7 249.8 193.3 246.6 203.7 Z M246.3 198.1 C247.1 195.9 247.5 194.7 247.6 194.4 247.7 194.1 247.8 193.9 247.9 193.7 247.4 194.1 246.2 195 244.2 196.5 Z" fill="#ffffff" fill-opacity="1" stroke="none"/>
   <path id="Path-28" d="M255.1 211.1 L253.1 209.3 254.9 200.6 C254.1 201.7 253.4 202.4 253.1 202.9 L249.9 206.5 248.5 205.2 255.3 197.6 257.3 199.4 255.5 208 C256.3 207 256.9 206.2 257.3 205.8 L260.5 202.2 261.9 203.5 Z" fill="#ffffff" fill-opacity="1" stroke="none"/>
  </g>
  <g id="group-22">
   <path id="Path-29" d="M55.7 232.8 C55.3 233.5 55.2 234.2 55.5 234.9 55.8 235.6 56.4 236.2 57.4 236.8 59.4 237.9 60.8 237.8 61.6 236.3 62 235.7 62.2 234.8 62.4 233.8 L64 234.7 C63.9 235.6 63.6 236.5 63 237.4 62.3 238.7 61.3 239.4 60.1 239.7 58.9 239.9 57.6 239.6 56.2 238.8 55.3 238.3 54.6 237.6 54.1 236.9 53.6 236.2 53.4 235.4 53.3 234.5 53.3 233.7 53.5 232.8 54 232 54.5 231.1 55.2 230.4 56.1 229.8 L57.3 231.3 C57 231.5 56.6 231.8 56.3 232.1 56.2 232.2 55.9 232.5 55.7 232.8 Z" fill="#ffffff" fill-opacity="1" stroke="none"/>
   <path id="Path-30" d="M64.1 228.3 L67.3 230.5 66.1 232.3 57.7 226.5 59.4 224.1 C60.2 223 61 222.3 61.8 222 62.6 221.7 63.4 221.9 64.3 222.5 64.8 222.8 65.1 223.3 65.3 223.8 65.5 224.3 65.5 224.9 65.4 225.6 68.2 225.7 69.9 225.7 70.8 225.7 L69.4 227.7 64.8 227.5 Z M62.7 227.3 L63.1 226.7 C63.5 226.1 63.7 225.7 63.7 225.3 63.7 224.9 63.5 224.6 63.1 224.3 62.7 224 62.3 224 62 224.1 61.6 224.3 61.3 224.6 60.9 225.2 L60.5 225.7 Z" fill="#ffffff" fill-opacity="1" stroke="none"/>
   <path id="Path-31" d="M75.8 219.4 L72.1 223.9 64.2 217.4 67.9 212.9 69.3 214 67 216.9 68.7 218.3 70.9 215.6 72.3 216.7 70.1 219.4 72.1 221.1 74.4 218.2 Z" fill="#ffffff" fill-opacity="1" stroke="none"/>
   <path id="Path-32" d="M82.1 212.6 L79.8 211.5 77.2 214.2 78.4 216.4 76.8 218.1 72 208.4 73.8 206.5 83.7 211 Z M78.2 210.6 C76.1 209.6 75 209 74.7 208.8 74.4 208.7 74.2 208.5 74.1 208.5 74.4 209 75.2 210.4 76.4 212.5 Z" fill="#ffffff" fill-opacity="1" stroke="none"/>
   <path id="Path-33" d="M88.3 206.9 L86.7 208.3 81.1 202 79 203.9 77.8 202.6 83.6 197.5 84.8 198.8 82.7 200.6 Z" fill="#ffffff" fill-opacity="1" stroke="none"/>
   <path id="Path-34" d="M97 200 L92.3 203.6 86.1 195.5 90.8 191.9 91.9 193.3 88.9 195.6 90.3 197.4 93 195.3 94.1 196.7 91.4 198.8 93 200.9 96 198.6 Z" fill="#ffffff" fill-opacity="1" stroke="none"/>
  </g>
  <g id="group-23">
   <path id="Path-35" d="M68.4 371.5 L69.6 373.3 59.2 376.2 57.9 374.3 64.4 365.7 65.6 367.5 61.7 372.5 C61.5 372.8 61.2 373.1 60.9 373.5 60.6 373.9 60.3 374.1 60.2 374.2 60.6 374 61.3 373.7 62.4 373.4 Z" fill="#ffffff" fill-opacity="1" stroke="none"/>
   <path id="Path-36" d="M66.6 385.9 L62.9 381.3 70.9 374.9 74.6 379.5 73.2 380.6 70.9 377.7 69.1 379.1 71.3 381.8 69.9 382.9 67.7 380.2 65.6 381.8 67.9 384.7 Z" fill="#ffffff" fill-opacity="1" stroke="none"/>
   <path id="Path-37" d="M73.3 387.6 L70.4 390.3 68.9 388.7 76.4 381.8 78.4 384 C79.3 385 79.9 385.9 79.9 386.8 80 387.6 79.6 388.4 78.9 389.1 78.5 389.5 78 389.8 77.4 389.8 76.8 389.9 76.2 389.8 75.6 389.5 75 392.2 74.6 393.9 74.4 394.7 L72.8 392.9 74 388.5 Z M74.6 386.4 L75.1 386.9 C75.6 387.4 76 387.7 76.4 387.8 76.8 387.9 77.2 387.8 77.5 387.4 77.9 387.1 78 386.7 77.9 386.3 77.8 385.9 77.5 385.5 77.1 385 L76.7 384.5 Z" fill="#ffffff" fill-opacity="1" stroke="none"/>
   <path id="Path-38" d="M76.5 396.5 L83.5 389.1 85.1 390.6 78.1 398 Z" fill="#ffffff" fill-opacity="1" stroke="none"/>
   <path id="Path-39" d="M82.7 402.1 L81.1 400.7 87.7 392.9 92.2 396.7 91.1 398.1 88.3 395.7 86.6 397.7 89.2 399.9 88.1 401.2 85.5 399 Z" fill="#ffffff" fill-opacity="1" stroke="none"/>
   <path id="Path-40" d="M94.4 403.6 L98.6 401.4 100.5 402.8 94.1 405.9 91.8 409.1 90.1 407.8 92.4 404.6 93.4 397.5 95.3 398.9 Z" fill="#ffffff" fill-opacity="1" stroke="none"/>
  </g>
  <g id="group-24">
   <path id="Path-41" d="M464.4 429.4 L459.9 422.3 459.8 422.3 C460.3 423.8 460.6 424.9 460.8 425.4 L462 430 460.1 430.5 457.4 420.7 460.2 419.9 464.6 426.8 465 418.6 467.8 417.8 470.5 427.6 468.6 428.1 467.3 423.4 C467.2 423.2 467.2 422.9 467.1 422.6 467 422.3 466.9 421.5 466.6 420.3 L466.5 420.3 466 428.7 Z" fill="#ffffff" fill-opacity="1" stroke="none"/>
   <path id="Path-42" d="M481.6 418.2 C482.2 419.8 482.3 421.1 481.8 422.3 481.3 423.4 480.4 424.3 478.9 424.9 477.4 425.5 476.2 425.5 475.1 424.9 474 424.4 473.1 423.3 472.5 421.7 471.9 420.1 471.8 418.8 472.3 417.6 472.8 416.5 473.7 415.6 475.2 415 476.7 414.4 477.9 414.4 479 415 480.1 415.6 480.9 416.6 481.6 418.2 Z M474.6 420.9 C475 422 475.5 422.7 476.1 423.1 476.7 423.5 477.4 423.5 478.2 423.2 479.8 422.6 480.2 421.2 479.4 419.1 478.6 417 477.4 416.2 475.8 416.8 475 417.1 474.5 417.6 474.3 418.3 474.1 418.9 474.2 419.8 474.6 420.9 Z" fill="#ffffff" fill-opacity="1" stroke="none"/>
   <path id="Path-43" d="M495 417.3 L492.5 418.5 485.1 413.6 485 413.6 C485.7 414.8 486.2 415.6 486.4 416.1 L488.6 420.4 486.9 421.3 482.3 412.2 484.7 411 492.1 415.8 C491.4 414.6 491 413.8 490.7 413.3 L488.5 409 490.2 408.1 Z" fill="#ffffff" fill-opacity="1" stroke="none"/>
   <path id="Path-44" d="M498.5 415.3 L493.3 406.5 495.2 405.4 500.4 414.2 Z" fill="#ffffff" fill-opacity="1" stroke="none"/>
   <path id="Path-45" d="M507 409.8 L505.2 411 500.5 404.1 498.2 405.7 497.2 404.2 503.6 399.9 504.6 401.4 502.3 403 Z" fill="#ffffff" fill-opacity="1" stroke="none"/>
   <path id="Path-46" d="M515.8 396.6 C516.9 397.9 517.4 399.2 517.3 400.4 517.2 401.6 516.6 402.7 515.4 403.7 514.2 404.7 513 405.1 511.8 404.9 510.6 404.7 509.4 404 508.4 402.7 507.3 401.4 506.8 400.1 506.9 398.9 507 397.7 507.6 396.6 508.8 395.6 510 394.6 511.2 394.2 512.4 394.4 513.6 394.5 514.7 395.2 515.8 396.6 Z M510 401.3 C510.7 402.2 511.4 402.7 512.1 402.9 512.8 403.1 513.5 402.9 514.1 402.3 515.4 401.2 515.4 399.8 513.9 398 512.4 396.2 511.1 395.9 509.7 397 509 397.5 508.7 398.2 508.7 398.9 508.9 399.6 509.3 400.4 510 401.3 Z" fill="#ffffff" fill-opacity="1" stroke="none"/>
   <path id="Path-47" d="M520.6 393.7 L523.3 396.5 521.8 398 514.7 390.7 516.8 388.6 C517.8 387.6 518.7 387.1 519.5 387 520.3 386.9 521.1 387.2 521.8 387.9 522.2 388.3 522.5 388.8 522.6 389.4 522.7 390 522.6 390.6 522.4 391.2 525.1 391.8 526.9 392.1 527.7 392.3 L526 394 521.5 392.9 Z M519.4 392.4 L519.9 391.9 C520.4 391.4 520.7 391 520.7 390.6 520.8 390.2 520.6 389.8 520.3 389.5 520 389.2 519.6 389 519.2 389.1 518.8 389.2 518.4 389.5 517.9 390 L517.4 390.5 Z" fill="#ffffff" fill-opacity="1" stroke="none"/>
  </g>
  <g id="group-25">
   <path id="Path-48" d="M235 409.1 C235.5 410.1 235.6 411 235.3 411.8 235 412.6 234.2 413.3 233.1 413.9 L232.3 414.3 234 417.5 232.1 418.5 227.3 409.5 230.2 408 C231.3 407.4 232.2 407.2 233.1 407.4 233.8 407.6 234.5 408.1 235 409.1 Z M231.4 412.8 L232 412.5 C232.6 412.2 233 411.8 233.1 411.5 233.3 411.1 233.2 410.7 233 410.3 232.8 409.9 232.5 409.6 232.1 409.5 231.7 409.4 231.3 409.5 230.8 409.8 L229.9 410.3 Z" fill="#ffffff" fill-opacity="1" stroke="none"/>
   <path id="Path-49" d="M246.6 410.1 L244.7 408.5 241.6 410.5 242.3 412.9 240.3 414.2 237.7 403.6 239.9 402.2 248.5 408.8 Z M243.2 407.2 C241.4 405.7 240.4 404.9 240.2 404.7 240 404.5 239.8 404.3 239.7 404.2 239.9 404.8 240.3 406.3 241 408.6 Z" fill="#ffffff" fill-opacity="1" stroke="none"/>
   <path id="Path-50" d="M249 397.7 C248.4 398.2 248 398.8 248.1 399.6 248.1 400.4 248.5 401.2 249.1 402 250.5 403.8 251.9 404.2 253.2 403.1 253.8 402.7 254.3 402 254.9 401.1 L256 402.5 C255.6 403.3 254.9 404 254.1 404.6 252.9 405.5 251.8 405.9 250.6 405.6 249.4 405.4 248.3 404.6 247.3 403.3 246.6 402.5 246.2 401.6 246 400.7 245.8 399.8 245.9 399 246.2 398.2 246.5 397.4 247 396.7 247.8 396.1 248.6 395.5 249.5 395.1 250.6 394.8 L251.1 396.6 C250.7 396.7 250.3 396.8 249.9 396.9 249.6 397.3 249.3 397.4 249 397.7 Z" fill="#ffffff" fill-opacity="1" stroke="none"/>
   <path id="Path-51" d="M265.2 394.8 L263.4 396.5 258.5 395.2 258.3 396.3 260.8 399 259.2 400.5 252.3 393 253.9 391.5 257.1 394.9 256.9 393.4 256.6 389 258.4 387.4 258.9 393.1 Z" fill="#ffffff" fill-opacity="1" stroke="none"/>
   <path id="Path-52" d="M271.4 388 L269.1 386.9 266.6 389.7 267.9 391.9 266.3 393.6 261.1 384.1 262.9 382.1 272.9 386.3 Z M267.4 386.1 C265.3 385.1 264.1 384.6 263.9 384.5 263.6 384.4 263.4 384.3 263.3 384.2 263.6 384.7 264.4 386 265.7 388.1 Z" fill="#ffffff" fill-opacity="1" stroke="none"/>
   <path id="Path-53" d="M272.6 377.5 L275 374.3 279.2 377.5 C279 378.2 278.7 378.7 278.4 379.3 278.1 379.8 277.8 380.3 277.4 380.8 276.5 382 275.4 382.7 274.2 382.8 273 382.9 271.7 382.4 270.4 381.4 269.1 380.4 268.3 379.3 268.2 378 268 376.7 268.4 375.4 269.4 374 270 373.2 270.8 372.5 271.7 372 L272.7 373.6 C272 374 271.3 374.5 270.9 375.1 270.3 375.8 270.1 376.6 270.3 377.5 270.5 378.3 271 379.1 271.8 379.7 272.7 380.4 273.5 380.7 274.2 380.7 274.9 380.7 275.6 380.3 276.1 379.6 276.4 379.2 276.6 378.8 276.8 378.4 L275.1 377.1 273.9 378.6 Z" fill="#ffffff" fill-opacity="1" stroke="none"/>
   <path id="Path-54" d="M284.9 369.4 L281.8 374.4 273.2 369 276.3 364 277.8 364.9 275.8 368 277.7 369.2 279.5 366.3 281 367.2 279.2 370.1 281.4 371.5 283.4 368.4 Z" fill="#ffffff" fill-opacity="1" stroke="none"/>
  </g>
  <g id="group-26">
   <path id="Path-55" d="M516.7 199.9 C516.1 199.4 515.4 199.2 514.7 199.4 514 199.6 513.2 200.1 512.5 200.9 511 202.6 510.9 204.1 512.2 205.2 512.7 205.7 513.5 206.1 514.5 206.5 L513.3 207.9 C512.4 207.6 511.6 207.2 510.8 206.5 509.7 205.5 509.1 204.5 509.1 203.3 509.1 202.1 509.6 200.9 510.7 199.6 511.4 198.8 512.1 198.2 512.9 197.8 513.7 197.4 514.5 197.3 515.4 197.5 516.2 197.6 517 198 517.8 198.7 518.6 199.3 519.2 200.2 519.6 201.2 L517.9 202.1 C517.7 201.7 517.5 201.3 517.3 201 517.2 200.4 517 200.1 516.7 199.9 Z" fill="#ffffff" fill-opacity="1" stroke="none"/>
   <path id="Path-56" d="M525.5 213.1 C524.3 214.3 523.1 214.9 521.8 214.9 520.6 214.9 519.4 214.4 518.3 213.3 517.2 212.2 516.7 211 516.7 209.8 516.8 208.6 517.4 207.4 518.6 206.2 519.8 205 521 204.4 522.3 204.4 523.5 204.4 524.7 204.9 525.8 206 526.9 207.1 527.4 208.3 527.4 209.5 527.4 210.7 526.7 211.9 525.5 213.1 Z M520.3 207.8 C519.5 208.6 519 209.4 518.9 210.1 518.8 210.8 519 211.5 519.6 212.1 520.8 213.3 522.2 213.1 523.9 211.5 525.5 209.9 525.8 208.5 524.5 207.2 523.9 206.6 523.2 206.3 522.5 206.4 521.9 206.6 521.1 207 520.3 207.8 Z" fill="#ffffff" fill-opacity="1" stroke="none"/>
   <path id="Path-57" d="M529.5 226 L527.8 223.8 531.1 215.5 C530.1 216.4 529.4 217.1 528.9 217.4 L525.1 220.4 523.9 218.9 531.9 212.6 533.6 214.7 530.4 222.9 C531.4 222 532.1 221.4 532.5 221.1 L536.3 218.1 537.5 219.6 Z" fill="#ffffff" fill-opacity="1" stroke="none"/>
   <path id="Path-58" d="M532.7 230.5 L531.5 228.7 539.9 223 543.2 227.8 541.7 228.8 539.6 225.7 537.4 227.2 539.3 230.1 537.8 231.1 535.9 228.2 Z" fill="#ffffff" fill-opacity="1" stroke="none"/>
   <path id="Path-59" d="M536.3 236.1 L545.1 230.9 546.2 232.8 537.4 238 Z" fill="#ffffff" fill-opacity="1" stroke="none"/>
   <path id="Path-60" d="M546 241.8 L547.8 245.4 543.1 247.8 C542.6 247.3 542.2 246.8 541.9 246.3 541.6 245.8 541.3 245.3 541 244.8 540.3 243.4 540.2 242.2 540.6 241 541 239.9 542 238.9 543.5 238.2 545 237.5 546.3 237.3 547.6 237.7 548.8 238.1 549.8 239.1 550.6 240.6 551.1 241.5 551.3 242.5 551.4 243.6 L549.5 243.7 C549.5 242.9 549.3 242.1 549 241.4 548.6 240.6 548 240 547.1 239.8 546.3 239.6 545.4 239.7 544.5 240.2 543.5 240.7 542.9 241.3 542.5 242 542.2 242.7 542.2 243.4 542.6 244.2 542.8 244.6 543.1 245 543.3 245.4 L545.2 244.4 544.3 242.7 Z" fill="#ffffff" fill-opacity="1" stroke="none"/>
   <path id="Path-61" d="M556.6 255 L550.5 257.4 C549.8 257.7 549.1 257.8 548.5 257.7 547.9 257.6 547.3 257.3 546.8 256.8 546.3 256.3 545.9 255.7 545.6 254.9 545.1 253.7 545.1 252.6 545.4 251.7 545.8 250.8 546.5 250.1 547.6 249.7 L553.7 247.3 554.5 249.3 548.7 251.6 C548 251.9 547.5 252.2 547.3 252.7 547.1 253.1 547.1 253.7 547.4 254.4 547.7 255.1 548 255.5 548.5 255.6 549 255.8 549.6 255.7 550.3 255.4 L556.1 253.1 Z" fill="#ffffff" fill-opacity="1" stroke="none"/>
   <path id="Path-62" d="M552.5 262.9 L548.7 264 548.1 261.9 557.9 259 558.7 261.9 C559.1 263.2 559.1 264.3 558.8 265.1 558.5 265.9 557.9 266.4 556.9 266.7 556.3 266.9 555.8 266.9 555.2 266.7 554.7 266.5 554.2 266.2 553.8 265.7 552 267.8 550.9 269.2 550.4 269.8 L549.7 267.5 552.8 264.1 Z M554.2 262.4 L554.4 263.1 C554.6 263.8 554.8 264.2 555.2 264.5 555.5 264.7 555.9 264.8 556.4 264.7 556.9 264.6 557.1 264.3 557.2 263.9 557.3 263.5 557.3 263 557.1 262.3 L556.9 261.7 Z" fill="#ffffff" fill-opacity="1" stroke="none"/>
   <path id="Path-63" d="M552.1 277.6 L550.9 271.9 560.9 269.8 562.1 275.5 560.4 275.9 559.6 272.3 557.4 272.8 558.1 276.2 556.4 276.6 555.7 273.2 553.1 273.7 553.9 277.3 Z" fill="#ffffff" fill-opacity="1" stroke="none"/>
  </g>
 </g>
</svg>
