<svg xmlns="http://www.w3.org/2000/svg" xmlns:xlink="http://www.w3.org/1999/xlink" width="200" height="200" version="1.1" viewBox="0 0 200 200"><g id="group"><g id="group-1"><path id="Path" fill="#353535" fill-opacity="1" stroke="none" d="M52.967 99.3 C52.967 100.3 52.667 101.067 52.1 101.6 51.533 102.133 50.7 102.4 49.633 102.4 L47.9 102.4 47.9 96.3 49.833 96.3 C50.833 96.3 51.6 96.567 52.167 97.1 52.7 97.633 52.967 98.367 52.967 99.3 Z M51.633 99.333 C51.633 98.033 51.067 97.367 49.9 97.367 L49.2 97.367 49.2 101.333 49.767 101.333 C51 101.333 51.633 100.667 51.633 99.333 Z"/><path id="Path-1" fill="#353535" fill-opacity="1" stroke="none" d="M58.4 102.4 L54.9 102.4 54.9 96.3 58.4 96.3 58.4 97.367 56.167 97.367 56.167 98.7 58.233 98.7 58.233 99.767 56.167 99.767 56.167 101.333 58.4 101.333 Z"/><path id="Path-2" fill="#353535" fill-opacity="1" stroke="none" d="M63.8 96.3 L65.1 96.3 63.033 102.4 61.633 102.4 59.567 96.3 60.867 96.3 62 99.933 C62.067 100.133 62.133 100.4 62.2 100.667 62.267 100.967 62.3 101.167 62.333 101.267 62.367 101 62.467 100.567 62.633 99.933 Z"/></g><g id="group-2"><path id="Path-3" fill="#353535" fill-opacity="1" stroke="none" d="M140.467 99.367 C140.467 100.367 140.2 101.167 139.7 101.7 139.2 102.233 138.467 102.5 137.533 102.5 136.6 102.5 135.867 102.233 135.367 101.7 134.867 101.167 134.6 100.367 134.6 99.367 134.6 98.367 134.867 97.567 135.367 97.033 135.867 96.5 136.6 96.233 137.533 96.233 138.467 96.233 139.2 96.5 139.7 97.033 140.2 97.567 140.467 98.333 140.467 99.367 Z M136 99.367 C136 100.033 136.133 100.567 136.4 100.9 136.667 101.233 137.033 101.433 137.567 101.433 138.6 101.433 139.1 100.733 139.1 99.367 139.1 98 138.6 97.3 137.567 97.3 137.067 97.3 136.667 97.467 136.4 97.833 136.133 98.167 136 98.667 136 99.367 Z"/><path id="Path-4" fill="#353535" fill-opacity="1" stroke="none" d="M146.6 98.2 C146.6 98.867 146.4 99.367 146 99.7 145.6 100.033 145 100.233 144.233 100.233 L143.667 100.233 143.667 102.4 142.367 102.4 142.367 96.3 144.333 96.3 C145.067 96.3 145.633 96.467 146.033 96.767 146.4 97.1 146.6 97.567 146.6 98.2 Z M143.667 99.167 L144.1 99.167 C144.5 99.167 144.8 99.1 145 98.933 145.2 98.767 145.3 98.533 145.3 98.233 145.3 97.933 145.233 97.7 145.067 97.567 144.9 97.433 144.633 97.333 144.3 97.333 L143.667 97.333 Z"/><path id="Path-5" fill="#353535" fill-opacity="1" stroke="none" d="M152 100.7 C152 101.267 151.8 101.7 151.4 102 151 102.333 150.467 102.467 149.733 102.467 149.067 102.467 148.5 102.333 148 102.1 L148 100.9 C148.4 101.1 148.767 101.2 149.033 101.3 149.333 101.367 149.567 101.4 149.8 101.4 150.1 101.4 150.3 101.333 150.467 101.233 150.633 101.133 150.7 100.967 150.7 100.733 150.7 100.6 150.667 100.5 150.6 100.4 150.533 100.3 150.433 100.233 150.3 100.133 150.167 100.033 149.9 99.9 149.5 99.733 149.133 99.567 148.833 99.4 148.667 99.233 148.5 99.067 148.333 98.9 148.233 98.667 148.133 98.467 148.067 98.2 148.067 97.9 148.067 97.367 148.233 96.933 148.6 96.633 148.967 96.333 149.467 96.167 150.133 96.167 150.467 96.167 150.767 96.2 151.033 96.267 151.333 96.333 151.633 96.433 151.933 96.6 L151.5 97.6 C151.167 97.467 150.9 97.367 150.7 97.333 150.5 97.267 150.267 97.267 150.067 97.267 149.833 97.267 149.633 97.333 149.5 97.433 149.367 97.533 149.3 97.7 149.3 97.867 149.3 97.967 149.333 98.067 149.367 98.167 149.433 98.267 149.5 98.333 149.633 98.4 149.733 98.467 150.033 98.633 150.467 98.833 151.033 99.1 151.433 99.367 151.633 99.667 151.833 99.967 152 100.333 152 100.7 Z"/></g><g id="group-3"><path id="Path-6" fill="#19838e" fill-opacity="1" stroke="none" d="M60.067 68.533 C75.867 70.333 88.133 83.733 88.133 100 88.133 87.067 92.567 75.133 100 65.7 90.533 53.7 76.233 45.733 60.067 44.667 L55.433 56.6 Z"/></g><g id="group-4"><path id="Path-7" fill="#3737aa" fill-opacity="1" stroke="none" d="M53.1 131.5 C37.167 129.833 24.767 116.367 24.767 100 24.767 99.833 24.767 99.633 24.767 99.467 L13.033 104.033 1 99.367 1 100 C1 129.533 24.1 153.667 53.2 155.333 L57.767 143.533 Z"/></g><g id="group-6"><path id="Path-8" fill="#353535" fill-opacity="1" stroke="none" d="M111.9 101.167 C111.9 100.767 111.867 100.4 111.867 100 L111.867 101.167 Z"/></g><g id="group-7"><path id="Path-9" fill="#8b9b29" fill-opacity="1" stroke="none" d="M24.9 97.033 C26.4 80.933 39.933 68.3 56.433 68.3 56.833 68.3 57.2 68.3 57.6 68.333 L53.033 56.6 57.7 44.567 C57.267 44.567 56.833 44.567 56.433 44.567 26.833 44.567 2.633 67.767 1.067 97 L13.033 101.633 Z"/></g><g id="group-8"><path id="Path-10" fill="none" stroke="none" d="M88.667 103.433 L88.233 103.6 Z"/></g><g id="group-9"><g id="group-10"><path id="Path-11" fill="#3fa9f5" fill-opacity="1" stroke="none" d="M88.233 103.6 L88.233 103.567 Z"/></g><g id="group-11"><path id="Path-12" fill="#3fa9f5" fill-opacity="1" stroke="none" d="M111.767 103.5 L100.167 99 88.833 103.4 88.667 103.467 88.233 103.633 88.233 103.667 87.9 103.8 C86.033 119.533 72.667 131.733 56.433 131.733 56.133 131.733 55.833 131.733 55.533 131.733 L60.133 143.633 55.533 155.5 56.433 155.5 C74.1 155.5 89.833 147.233 100 134.367 L100 134.333 C106.767 125.7 111.033 115.067 111.767 103.5 Z"/></g></g><g id="group-13"><g id="group-15"><path id="Path-13" fill="#f15a24" fill-opacity="1" stroke="none" d="M88.133 101.3 C88.133 101.267 88.133 101.3 88.133 101.3 Z"/></g><g id="group-16"><path id="Path-14" fill="#f15a24" fill-opacity="1" stroke="none" d="M152.933 45.367 C149.867 44.833 146.733 44.567 143.567 44.567 125.9 44.567 110.167 52.833 100 65.7 92.567 75.133 88.133 87.033 88.133 100 L88.133 101.267 100.167 96.6 111.867 101.133 C111.867 100.733 111.867 100.367 111.867 99.967 111.867 82.467 126.067 68.3 143.533 68.3 144.967 68.3 146.367 68.4 147.767 68.567 L154.8 58.133 Z"/></g></g><g id="group-17"><path id="Path-15" fill="#9263ab" fill-opacity="1" stroke="none" d="M198.167 109.6 C198.7 106.467 199 103.267 199 100 199 73.4 180.267 51.167 155.233 45.8 L157.133 58.7 150.167 69.033 C164.5 72.067 175.233 84.8 175.233 100.033 175.233 101.433 175.133 102.833 174.967 104.2 L185.7 111.467 Z"/></g><g id="group-18"><path id="Path-16" fill="#aa2e2e" fill-opacity="1" stroke="none" d="M174.567 106.567 C171.533 120.9 158.8 131.7 143.567 131.7 142.167 131.7 140.8 131.6 139.433 131.433 L132.133 142.333 134 154.633 C137.1 155.167 140.3 155.467 143.567 155.467 170.1 155.467 192.267 136.833 197.733 111.933 L185.2 113.767 Z"/></g><g id="group-19"><path id="Path-17" fill="#19838e" fill-opacity="1" stroke="none" d="M137.033 131 C123.8 128.233 113.633 117.233 112.067 103.6 L111.767 103.467 C111.033 115.067 106.767 125.7 100 134.267 107.8 144.167 118.933 151.333 131.667 154.133 L129.8 141.767 Z"/></g><g id="group-20"><path id="Path-18" fill="#fff" fill-opacity="1" stroke="none" d="M109.267 74.967 L110.3 75.733 109.867 76.3 107.133 74.267 107.733 73.467 C108 73.1 108.267 72.867 108.533 72.8 108.8 72.733 109.067 72.8 109.333 73 109.5 73.133 109.6 73.267 109.667 73.467 109.733 73.633 109.733 73.833 109.667 74.067 110.6 74.1 111.167 74.133 111.467 74.167 L111 74.8 109.467 74.667 Z M108.8 74.6 L108.933 74.4 C109.067 74.233 109.133 74.067 109.133 73.933 109.133 73.8 109.067 73.7 108.933 73.6 108.8 73.5 108.667 73.467 108.567 73.533 108.433 73.567 108.3 73.7 108.167 73.9 L108.033 74.067 Z"/><path id="Path-19" fill="#fff" fill-opacity="1" stroke="none" d="M113.267 72.133 L111.967 73.6 109.4 71.367 110.7 69.9 111.133 70.3 110.333 71.233 110.9 71.733 111.667 70.867 112.1 71.267 111.333 72.133 112 72.7 112.8 71.767 Z"/><path id="Path-20" fill="#fff" fill-opacity="1" stroke="none" d="M113.967 71.4 L111.567 68.967 112.067 68.467 114.033 70.467 115 69.5 115.433 69.933 Z"/><path id="Path-21" fill="#fff" fill-opacity="1" stroke="none" d="M117.633 68.067 L116.133 69.333 113.933 66.733 115.433 65.467 115.833 65.9 114.9 66.7 115.4 67.267 116.267 66.533 116.667 66.967 115.8 67.7 116.367 68.367 117.3 67.567 Z"/><path id="Path-22" fill="#fff" fill-opacity="1" stroke="none" d="M120.1 66.2 L119.433 65.7 118.433 66.433 118.7 67.233 118.067 67.7 117.033 64.233 117.733 63.7 120.7 65.767 Z M118.933 65.3 C118.333 64.833 117.967 64.567 117.9 64.533 117.833 64.467 117.767 64.433 117.7 64.4 117.767 64.6 117.933 65.067 118.2 65.833 Z"/><path id="Path-23" fill="#fff" fill-opacity="1" stroke="none" d="M122.533 63.533 C122.7 63.8 122.733 64.067 122.633 64.333 122.533 64.6 122.333 64.833 122 65.033 121.7 65.233 121.367 65.333 121.067 65.367 L120.733 64.8 C120.967 64.767 121.2 64.733 121.333 64.667 121.5 64.633 121.633 64.567 121.733 64.5 121.867 64.433 121.967 64.333 122 64.233 122.033 64.133 122.033 64.033 121.967 63.933 121.933 63.867 121.9 63.833 121.833 63.8 121.767 63.767 121.7 63.767 121.6 63.767 121.5 63.767 121.333 63.767 121.1 63.8 120.867 63.833 120.7 63.833 120.567 63.8 120.433 63.767 120.3 63.733 120.2 63.667 120.1 63.6 120 63.5 119.9 63.367 119.733 63.1 119.7 62.867 119.8 62.6 119.9 62.333 120.067 62.133 120.4 61.933 120.567 61.833 120.7 61.767 120.867 61.733 121.033 61.7 121.2 61.633 121.4 61.633 L121.5 62.233 C121.3 62.267 121.167 62.3 121.033 62.333 120.933 62.367 120.8 62.433 120.7 62.467 120.6 62.533 120.5 62.633 120.467 62.7 120.433 62.8 120.433 62.867 120.5 62.967 120.533 63.033 120.567 63.067 120.633 63.1 120.7 63.133 120.733 63.133 120.833 63.133 120.933 63.133 121.067 63.133 121.333 63.1 121.7 63.067 121.933 63.067 122.133 63.133 122.3 63.2 122.433 63.333 122.533 63.533 Z"/><path id="Path-24" fill="#fff" fill-opacity="1" stroke="none" d="M125.6 62.967 L123.867 63.867 122.3 60.833 124.033 59.933 124.3 60.467 123.2 61.033 123.533 61.7 124.567 61.167 124.833 61.7 123.8 62.233 124.2 63 125.3 62.433 Z"/></g><g id="group-21"><path id="Path-25" fill="#fff" fill-opacity="1" stroke="none" d="M77.7 62.033 C77.533 62.367 77.3 62.567 77 62.633 76.7 62.7 76.367 62.633 76 62.433 L75.733 62.3 75.167 63.367 74.533 63.033 76.1 60.033 77.067 60.533 C77.433 60.733 77.667 60.933 77.767 61.2 77.867 61.433 77.833 61.733 77.7 62.033 Z M76 61.767 L76.2 61.867 C76.4 61.967 76.567 62 76.7 61.967 76.833 61.933 76.933 61.867 77.033 61.7 77.1 61.533 77.133 61.433 77.1 61.3 77.067 61.2 76.933 61.1 76.767 61 L76.467 60.833 Z"/><path id="Path-26" fill="#fff" fill-opacity="1" stroke="none" d="M77.4 64.6 L79.2 61.7 79.8 62.067 78.333 64.433 79.5 65.167 79.2 65.667 Z"/><path id="Path-27" fill="#fff" fill-opacity="1" stroke="none" d="M81.6 67.433 L81.867 66.633 80.867 65.9 80.2 66.4 79.567 65.933 82.567 63.9 83.267 64.433 82.2 67.9 Z M82.1 66.033 C82.367 65.3 82.5 64.9 82.533 64.8 82.567 64.7 82.6 64.633 82.633 64.567 82.467 64.7 82.067 65 81.4 65.5 Z"/><path id="Path-28" fill="#fff" fill-opacity="1" stroke="none" d="M85.033 70.367 L84.367 69.767 84.967 66.867 C84.7 67.233 84.467 67.467 84.367 67.633 L83.3 68.833 82.833 68.4 85.1 65.867 85.767 66.467 85.167 69.333 C85.433 69 85.633 68.733 85.767 68.6 L86.833 67.4 87.3 67.833 Z"/></g><g id="group-22"><path id="Path-29" fill="#fff" fill-opacity="1" stroke="none" d="M18.567 77.6 C18.433 77.833 18.4 78.067 18.5 78.3 18.6 78.533 18.8 78.733 19.133 78.933 19.8 79.3 20.267 79.267 20.533 78.767 20.667 78.567 20.733 78.267 20.8 77.933 L21.333 78.233 C21.3 78.533 21.2 78.833 21 79.133 20.767 79.567 20.433 79.8 20.033 79.9 19.633 79.967 19.2 79.867 18.733 79.6 18.433 79.433 18.2 79.2 18.033 78.967 17.867 78.733 17.8 78.467 17.767 78.167 17.767 77.9 17.833 77.6 18 77.333 18.167 77.033 18.4 76.8 18.7 76.6 L19.1 77.1 C19 77.167 18.867 77.267 18.767 77.367 18.733 77.4 18.633 77.5 18.567 77.6 Z"/><path id="Path-30" fill="#fff" fill-opacity="1" stroke="none" d="M21.367 76.1 L22.433 76.833 22.033 77.433 19.233 75.5 19.8 74.7 C20.067 74.333 20.333 74.1 20.6 74 20.867 73.9 21.133 73.967 21.433 74.167 21.6 74.267 21.7 74.433 21.767 74.6 21.833 74.767 21.833 74.967 21.8 75.2 22.733 75.233 23.3 75.233 23.6 75.233 L23.133 75.9 21.6 75.833 Z M20.9 75.767 L21.033 75.567 C21.167 75.367 21.233 75.233 21.233 75.1 21.233 74.967 21.167 74.867 21.033 74.767 20.9 74.667 20.767 74.667 20.667 74.7 20.533 74.767 20.433 74.867 20.3 75.067 L20.167 75.233 Z"/><path id="Path-31" fill="#fff" fill-opacity="1" stroke="none" d="M25.267 73.133 L24.033 74.633 21.4 72.467 22.633 70.967 23.1 71.333 22.333 72.3 22.9 72.767 23.633 71.867 24.1 72.233 23.367 73.133 24.033 73.7 24.8 72.733 Z"/><path id="Path-32" fill="#fff" fill-opacity="1" stroke="none" d="M27.367 70.867 L26.6 70.5 25.733 71.4 26.133 72.133 25.6 72.7 24 69.467 24.6 68.833 27.9 70.333 Z M26.067 70.2 C25.367 69.867 25 69.667 24.9 69.6 24.8 69.567 24.733 69.5 24.7 69.5 24.8 69.667 25.067 70.133 25.467 70.833 Z"/><path id="Path-33" fill="#fff" fill-opacity="1" stroke="none" d="M29.433 68.967 L28.9 69.433 27.033 67.333 26.333 67.967 25.933 67.533 27.867 65.833 28.267 66.267 27.567 66.867 Z"/><path id="Path-34" fill="#fff" fill-opacity="1" stroke="none" d="M32.333 66.667 L30.767 67.867 28.7 65.167 30.267 63.967 30.633 64.433 29.633 65.2 30.1 65.8 31 65.1 31.367 65.567 30.467 66.267 31 66.967 32 66.2 Z"/></g><g id="group-23"><path id="Path-35" fill="#fff" fill-opacity="1" stroke="none" d="M22.8 123.833 L23.2 124.433 19.733 125.4 19.3 124.767 21.467 121.9 21.867 122.5 20.567 124.167 C20.5 124.267 20.4 124.367 20.3 124.5 20.2 124.633 20.1 124.7 20.067 124.733 20.2 124.667 20.433 124.567 20.8 124.467 Z"/><path id="Path-36" fill="#fff" fill-opacity="1" stroke="none" d="M22.2 128.633 L20.967 127.1 23.633 124.967 24.867 126.5 24.4 126.867 23.633 125.9 23.033 126.367 23.767 127.267 23.3 127.633 22.567 126.733 21.867 127.267 22.633 128.233 Z"/><path id="Path-37" fill="#fff" fill-opacity="1" stroke="none" d="M24.433 129.2 L23.467 130.1 22.967 129.567 25.467 127.267 26.133 128 C26.433 128.333 26.633 128.633 26.633 128.933 26.667 129.2 26.533 129.467 26.3 129.7 26.167 129.833 26 129.933 25.8 129.933 25.6 129.967 25.4 129.933 25.2 129.833 25 130.733 24.867 131.3 24.8 131.567 L24.267 130.967 24.667 129.5 Z M24.867 128.8 L25.033 128.967 C25.2 129.133 25.333 129.233 25.467 129.267 25.6 129.3 25.733 129.267 25.833 129.133 25.967 129.033 26 128.9 25.967 128.767 25.933 128.633 25.833 128.5 25.7 128.333 L25.567 128.167 Z"/><path id="Path-38" fill="#fff" fill-opacity="1" stroke="none" d="M25.5 132.167 L27.833 129.7 28.367 130.2 26.033 132.667 Z"/><path id="Path-39" fill="#fff" fill-opacity="1" stroke="none" d="M27.567 134.033 L27.033 133.567 29.233 130.967 30.733 132.233 30.367 132.7 29.433 131.9 28.867 132.567 29.733 133.3 29.367 133.733 28.5 133 Z"/><path id="Path-40" fill="#fff" fill-opacity="1" stroke="none" d="M31.467 134.533 L32.867 133.8 33.5 134.267 31.367 135.3 30.6 136.367 30.033 135.933 30.8 134.867 31.133 132.5 31.767 132.967 Z"/></g><g id="group-24"><path id="Path-41" fill="#fff" fill-opacity="1" stroke="none" d="M154.8 143.133 L153.3 140.767 153.267 140.767 C153.433 141.267 153.533 141.633 153.6 141.8 L154 143.333 153.367 143.5 152.467 140.233 153.4 139.967 154.867 142.267 155 139.533 155.933 139.267 156.833 142.533 156.2 142.7 155.767 141.133 C155.733 141.067 155.733 140.967 155.7 140.867 155.667 140.767 155.633 140.5 155.533 140.1 L155.5 140.1 155.333 142.9 Z"/><path id="Path-42" fill="#fff" fill-opacity="1" stroke="none" d="M160.533 139.4 C160.733 139.933 160.767 140.367 160.6 140.767 160.433 141.133 160.133 141.433 159.633 141.633 159.133 141.833 158.733 141.833 158.367 141.633 158 141.467 157.7 141.1 157.5 140.567 157.3 140.033 157.267 139.6 157.433 139.2 157.6 138.833 157.9 138.533 158.4 138.333 158.9 138.133 159.3 138.133 159.667 138.333 160.033 138.533 160.3 138.867 160.533 139.4 Z M158.2 140.3 C158.333 140.667 158.5 140.9 158.7 141.033 158.9 141.167 159.133 141.167 159.4 141.067 159.933 140.867 160.067 140.4 159.8 139.7 159.533 139 159.133 138.733 158.6 138.933 158.333 139.033 158.167 139.2 158.1 139.433 158.033 139.633 158.067 139.933 158.2 140.3 Z"/><path id="Path-43" fill="#fff" fill-opacity="1" stroke="none" d="M165 139.1 L164.167 139.5 161.7 137.867 161.667 137.867 C161.9 138.267 162.067 138.533 162.133 138.7 L162.867 140.133 162.3 140.433 160.767 137.4 161.567 137 164.033 138.6 C163.8 138.2 163.667 137.933 163.567 137.767 L162.833 136.333 163.4 136.033 Z"/><path id="Path-44" fill="#fff" fill-opacity="1" stroke="none" d="M166.167 138.433 L164.433 135.5 165.067 135.133 166.8 138.067 Z"/><path id="Path-45" fill="#fff" fill-opacity="1" stroke="none" d="M169 136.6 L168.4 137 166.833 134.7 166.067 135.233 165.733 134.733 167.867 133.3 168.2 133.8 167.433 134.333 Z"/><path id="Path-46" fill="#fff" fill-opacity="1" stroke="none" d="M171.933 132.2 C172.3 132.633 172.467 133.067 172.433 133.467 172.4 133.867 172.2 134.233 171.8 134.567 171.4 134.9 171 135.033 170.6 134.967 170.2 134.9 169.8 134.667 169.467 134.233 169.1 133.8 168.933 133.367 168.967 132.967 169 132.567 169.2 132.2 169.6 131.867 170 131.533 170.4 131.4 170.8 131.467 171.2 131.5 171.567 131.733 171.933 132.2 Z M170 133.767 C170.233 134.067 170.467 134.233 170.7 134.3 170.933 134.367 171.167 134.3 171.367 134.1 171.8 133.733 171.8 133.267 171.3 132.667 170.8 132.067 170.367 131.967 169.9 132.333 169.667 132.5 169.567 132.733 169.567 132.967 169.633 133.2 169.767 133.467 170 133.767 Z"/><path id="Path-47" fill="#fff" fill-opacity="1" stroke="none" d="M173.533 131.233 L174.433 132.167 173.933 132.667 171.567 130.233 172.267 129.533 C172.6 129.2 172.9 129.033 173.167 129 173.433 128.967 173.7 129.067 173.933 129.3 174.067 129.433 174.167 129.6 174.2 129.8 174.233 130 174.2 130.2 174.133 130.4 175.033 130.6 175.633 130.7 175.9 130.767 L175.333 131.333 173.833 130.967 Z M173.133 130.8 L173.3 130.633 C173.467 130.467 173.567 130.333 173.567 130.2 173.6 130.067 173.533 129.933 173.433 129.833 173.333 129.733 173.2 129.667 173.067 129.7 172.933 129.733 172.8 129.833 172.633 130 L172.467 130.167 Z"/></g><g id="group-25"><path id="Path-48" fill="#fff" fill-opacity="1" stroke="none" d="M78.333 136.367 C78.5 136.7 78.533 137 78.433 137.267 78.333 137.533 78.067 137.767 77.7 137.967 L77.433 138.1 78 139.167 77.367 139.5 75.767 136.5 76.733 136 C77.1 135.8 77.4 135.733 77.7 135.8 77.933 135.867 78.167 136.033 78.333 136.367 Z M77.133 137.6 L77.333 137.5 C77.533 137.4 77.667 137.267 77.7 137.167 77.767 137.033 77.733 136.9 77.667 136.767 77.6 136.633 77.5 136.533 77.367 136.5 77.233 136.467 77.1 136.5 76.933 136.6 L76.633 136.767 Z"/><path id="Path-49" fill="#fff" fill-opacity="1" stroke="none" d="M82.2 136.7 L81.567 136.167 80.533 136.833 80.767 137.633 80.1 138.067 79.233 134.533 79.967 134.067 82.833 136.267 Z M81.067 135.733 C80.467 135.233 80.133 134.967 80.067 134.9 80 134.833 79.933 134.767 79.9 134.733 79.967 134.933 80.1 135.433 80.333 136.2 Z"/><path id="Path-50" fill="#fff" fill-opacity="1" stroke="none" d="M83 132.567 C82.8 132.733 82.667 132.933 82.7 133.2 82.7 133.467 82.833 133.733 83.033 134 83.5 134.6 83.967 134.733 84.4 134.367 84.6 134.233 84.767 134 84.967 133.7 L85.333 134.167 C85.2 134.433 84.967 134.667 84.7 134.867 84.3 135.167 83.933 135.3 83.533 135.2 83.133 135.133 82.767 134.867 82.433 134.433 82.2 134.167 82.067 133.867 82 133.567 81.933 133.267 81.967 133 82.067 132.733 82.167 132.467 82.333 132.233 82.6 132.033 82.867 131.833 83.167 131.7 83.533 131.6 L83.7 132.2 C83.567 132.233 83.433 132.267 83.3 132.3 83.2 132.433 83.1 132.467 83 132.567 Z"/><path id="Path-51" fill="#fff" fill-opacity="1" stroke="none" d="M88.4 131.6 L87.8 132.167 86.167 131.733 86.1 132.1 86.933 133 86.4 133.5 84.1 131 84.633 130.5 85.7 131.633 85.633 131.133 85.533 129.667 86.133 129.133 86.3 131.033 Z"/><path id="Path-52" fill="#fff" fill-opacity="1" stroke="none" d="M90.467 129.333 L89.7 128.967 88.867 129.9 89.3 130.633 88.767 131.2 87.033 128.033 87.633 127.367 90.967 128.767 Z M89.133 128.7 C88.433 128.367 88.033 128.2 87.967 128.167 87.867 128.133 87.8 128.1 87.767 128.067 87.867 128.233 88.133 128.667 88.567 129.367 Z"/><path id="Path-53" fill="#fff" fill-opacity="1" stroke="none" d="M90.867 125.833 L91.667 124.767 93.067 125.833 C93 126.067 92.9 126.233 92.8 126.433 92.7 126.6 92.6 126.767 92.467 126.933 92.167 127.333 91.8 127.567 91.4 127.6 91 127.633 90.567 127.467 90.133 127.133 89.7 126.8 89.433 126.433 89.4 126 89.333 125.567 89.467 125.133 89.8 124.667 90 124.4 90.267 124.167 90.567 124 L90.9 124.533 C90.667 124.667 90.433 124.833 90.3 125.033 90.1 125.267 90.033 125.533 90.1 125.833 90.167 126.1 90.333 126.367 90.6 126.567 90.9 126.8 91.167 126.9 91.4 126.9 91.633 126.9 91.867 126.767 92.033 126.533 92.133 126.4 92.2 126.267 92.267 126.133 L91.7 125.7 91.3 126.2 Z"/><path id="Path-54" fill="#fff" fill-opacity="1" stroke="none" d="M94.967 123.133 L93.933 124.8 91.067 123 92.1 121.333 92.6 121.633 91.933 122.667 92.567 123.067 93.167 122.1 93.667 122.4 93.067 123.367 93.8 123.833 94.467 122.8 Z"/></g><g id="group-26"><path id="Path-55" fill="#fff" fill-opacity="1" stroke="none" d="M172.233 66.633 C172.033 66.467 171.8 66.4 171.567 66.467 171.333 66.533 171.067 66.7 170.833 66.967 170.333 67.533 170.3 68.033 170.733 68.4 170.9 68.567 171.167 68.7 171.5 68.833 L171.1 69.3 C170.8 69.2 170.533 69.067 170.267 68.833 169.9 68.5 169.7 68.167 169.7 67.767 169.7 67.367 169.867 66.967 170.233 66.533 170.467 66.267 170.7 66.067 170.967 65.933 171.233 65.8 171.5 65.767 171.8 65.833 172.067 65.867 172.333 66 172.6 66.233 172.867 66.433 173.067 66.733 173.2 67.067 L172.633 67.367 C172.567 67.233 172.5 67.1 172.433 67 172.4 66.8 172.333 66.7 172.233 66.633 Z"/><path id="Path-56" fill="#fff" fill-opacity="1" stroke="none" d="M175.167 71.033 C174.767 71.433 174.367 71.633 173.933 71.633 173.533 71.633 173.133 71.467 172.767 71.1 172.4 70.733 172.233 70.333 172.233 69.933 172.267 69.533 172.467 69.133 172.867 68.733 173.267 68.333 173.667 68.133 174.1 68.133 174.5 68.133 174.9 68.3 175.267 68.667 175.633 69.033 175.8 69.433 175.8 69.833 175.8 70.233 175.567 70.633 175.167 71.033 Z M173.433 69.267 C173.167 69.533 173 69.8 172.967 70.033 172.933 70.267 173 70.5 173.2 70.7 173.6 71.1 174.067 71.033 174.633 70.5 175.167 69.967 175.267 69.5 174.833 69.067 174.633 68.867 174.4 68.767 174.167 68.8 173.967 68.867 173.7 69 173.433 69.267 Z"/><path id="Path-57" fill="#fff" fill-opacity="1" stroke="none" d="M176.5 75.333 L175.933 74.6 177.033 71.833 C176.7 72.133 176.467 72.367 176.3 72.467 L175.033 73.467 174.633 72.967 177.3 70.867 177.867 71.567 176.8 74.3 C177.133 74 177.367 73.8 177.5 73.7 L178.767 72.7 179.167 73.2 Z"/><path id="Path-58" fill="#fff" fill-opacity="1" stroke="none" d="M177.567 76.833 L177.167 76.233 179.967 74.333 181.067 75.933 180.567 76.267 179.867 75.233 179.133 75.733 179.767 76.7 179.267 77.033 178.633 76.067 Z"/><path id="Path-59" fill="#fff" fill-opacity="1" stroke="none" d="M178.767 78.7 L181.7 76.967 182.067 77.6 179.133 79.333 Z"/><path id="Path-60" fill="#fff" fill-opacity="1" stroke="none" d="M182 80.6 L182.6 81.8 181.033 82.6 C180.867 82.433 180.733 82.267 180.633 82.1 180.533 81.933 180.433 81.767 180.333 81.6 180.1 81.133 180.067 80.733 180.2 80.333 180.333 79.967 180.667 79.633 181.167 79.4 181.667 79.167 182.1 79.1 182.533 79.233 182.933 79.367 183.267 79.7 183.533 80.2 183.7 80.5 183.767 80.833 183.8 81.2 L183.167 81.233 C183.167 80.967 183.1 80.7 183 80.467 182.867 80.2 182.667 80 182.367 79.933 182.1 79.867 181.8 79.9 181.5 80.067 181.167 80.233 180.967 80.433 180.833 80.667 180.733 80.9 180.733 81.133 180.867 81.4 180.933 81.533 181.033 81.667 181.1 81.8 L181.733 81.467 181.433 80.9 Z"/><path id="Path-61" fill="#fff" fill-opacity="1" stroke="none" d="M185.533 85 L183.5 85.8 C183.267 85.9 183.033 85.933 182.833 85.9 182.633 85.867 182.433 85.767 182.267 85.6 182.1 85.433 181.967 85.233 181.867 84.967 181.7 84.567 181.7 84.2 181.8 83.9 181.933 83.6 182.167 83.367 182.533 83.233 L184.567 82.433 184.833 83.1 182.9 83.867 C182.667 83.967 182.5 84.067 182.433 84.233 182.367 84.367 182.367 84.567 182.467 84.8 182.567 85.033 182.667 85.167 182.833 85.2 183 85.267 183.2 85.233 183.433 85.133 L185.367 84.367 Z"/><path id="Path-62" fill="#fff" fill-opacity="1" stroke="none" d="M184.167 87.633 L182.9 88 182.7 87.3 185.967 86.333 186.233 87.3 C186.367 87.733 186.367 88.1 186.267 88.367 186.167 88.633 185.967 88.8 185.633 88.9 185.433 88.967 185.267 88.967 185.067 88.9 184.9 88.833 184.733 88.733 184.6 88.567 184 89.267 183.633 89.733 183.467 89.933 L183.233 89.167 184.267 88.033 Z M184.733 87.467 L184.8 87.7 C184.867 87.933 184.933 88.067 185.067 88.167 185.167 88.233 185.3 88.267 185.467 88.233 185.633 88.2 185.7 88.1 185.733 87.967 185.767 87.833 185.767 87.667 185.7 87.433 L185.633 87.233 Z"/><path id="Path-63" fill="#fff" fill-opacity="1" stroke="none" d="M184.033 92.533 L183.633 90.633 186.967 89.933 187.367 91.833 186.8 91.967 186.533 90.767 185.8 90.933 186.033 92.067 185.467 92.2 185.233 91.067 184.367 91.233 184.633 92.433 Z"/></g></g></svg>