<?xml version="1.0" encoding="UTF-8"?>
<svg width="752px" height="752px" viewBox="0 0 752 752" xmlns="http://www.w3.org/2000/svg" xmlns:xlink="http://www.w3.org/1999/xlink" version="1.1">
 <!-- Generated by Pixelmator Pro 1.7.1 -->
 <g id="layer1">
  <path id="path3055" d="M378.35 40.24 C372.137 40.553 366.049 42.093 360.444 44.771 L116.1 161.521 C103.289 167.639 93.984 179.21 90.819 192.958 L30.537 455.208 C27.725 467.416 30.013 480.232 36.881 490.74 37.705 492.011 38.592 493.242 39.537 494.427 L208.662 704.708 C217.53 715.731 230.976 722.149 245.194 722.146 L516.412 722.083 C530.625 722.094 544.069 715.688 552.944 704.677 L722.006 494.365 C730.879 483.337 734.203 468.901 731.037 455.146 L670.662 192.896 C667.497 179.147 658.192 167.576 645.381 161.458 L401.006 44.771 C393.956 41.402 386.165 39.844 378.35 40.24 Z" fill="#326ce5" fill-opacity="1" stroke="none"/>
  <path id="path3054-2-9" d="M378.219 21.25 C371.667 21.593 365.25 23.229 359.344 26.063 L101.375 149.281 C87.851 155.74 78.029 167.955 74.688 182.469 L11.063 459.313 C8.085 472.205 10.497 485.744 17.75 496.844 18.623 498.18 19.562 499.473 20.562 500.719 L199.094 722.719 C208.455 734.353 222.648 741.128 237.656 741.125 L523.969 741.063 C538.971 741.073 553.163 734.31 562.531 722.688 L741 500.656 C750.357 489.021 753.865 473.793 750.531 459.281 L686.813 182.406 C683.463 167.904 673.641 155.702 660.125 149.25 L402.156 26.031 C394.707 22.473 386.476 20.829 378.219 21.25 Z M378.344 40.25 C386.159 39.855 393.95 41.413 401 44.781 L645.375 161.469 C658.186 167.587 667.491 179.158 670.656 192.906 L731.031 455.156 C734.197 468.911 730.873 483.347 722 494.375 L552.938 704.688 C544.063 715.698 530.619 722.104 516.406 722.094 L245.188 722.156 C230.97 722.159 217.524 715.741 208.656 704.719 L39.531 494.438 C38.586 493.252 37.699 492.021 36.875 490.75 30.007 480.243 27.719 467.426 30.531 455.219 L90.813 192.969 C93.978 179.22 103.283 167.649 116.094 161.531 L360.438 44.781 C366.043 42.104 372.13 40.563 378.344 40.25 Z" fill="#ffffff" fill-opacity="1" stroke="none"/>
  <path id="path3059" d="M380.771 129.487 C372.694 129.488 366.145 136.763 366.146 145.737 366.146 145.874 366.174 146.006 366.177 146.143 366.165 147.362 366.106 148.831 366.146 149.893 366.339 155.069 367.467 159.03 368.146 163.799 369.376 174.006 370.407 182.467 369.771 190.33 369.152 193.296 366.968 196.008 365.021 197.893 L364.677 204.08 C355.901 204.808 347.065 206.139 338.24 208.143 300.265 216.765 267.57 236.326 242.677 262.737 241.062 261.635 238.236 259.608 237.396 258.987 234.785 259.339 232.146 260.145 228.709 258.143 222.164 253.737 216.203 247.656 208.99 240.33 205.685 236.826 203.291 233.489 199.365 230.112 198.473 229.345 197.112 228.307 196.115 227.518 193.045 225.07 189.424 223.794 185.927 223.674 181.431 223.52 177.103 225.278 174.271 228.83 169.236 235.146 170.848 244.799 177.865 250.393 177.936 250.45 178.012 250.494 178.084 250.549 179.048 251.331 180.229 252.332 181.115 252.987 185.282 256.063 189.088 257.638 193.24 260.08 201.987 265.482 209.238 269.961 214.99 275.362 217.236 277.756 217.628 281.975 217.927 283.799 L222.615 287.987 C197.521 325.75 185.908 372.396 192.771 419.924 L186.646 421.705 C185.032 423.79 182.751 427.07 180.365 428.049 172.84 430.419 164.371 431.29 154.146 432.362 149.346 432.761 145.204 432.523 140.115 433.487 138.995 433.699 137.434 434.105 136.209 434.393 136.166 434.402 136.126 434.415 136.084 434.424 136.017 434.44 135.929 434.472 135.865 434.487 127.245 436.569 121.707 444.493 123.49 452.299 125.273 460.107 133.693 464.856 142.365 462.987 142.427 462.972 142.518 462.97 142.584 462.955 142.681 462.933 142.768 462.886 142.865 462.862 144.074 462.596 145.589 462.301 146.646 462.018 151.649 460.678 155.273 458.71 159.771 456.987 169.448 453.516 177.463 450.617 185.271 449.487 188.532 449.231 191.968 451.499 193.677 452.456 L200.052 451.362 C214.722 496.845 245.466 533.607 284.396 556.674 L281.74 563.049 C282.697 565.525 283.753 568.874 283.04 571.319 280.201 578.68 275.339 586.45 269.802 595.112 267.121 599.114 264.378 602.219 261.959 606.799 261.38 607.895 260.642 609.579 260.084 610.737 256.325 618.779 259.082 628.042 266.302 631.518 273.568 635.016 282.587 631.327 286.49 623.268 286.496 623.257 286.515 623.248 286.521 623.237 286.525 623.228 286.517 623.214 286.521 623.206 287.077 622.063 287.865 620.561 288.333 619.487 290.406 614.74 291.095 610.672 292.552 606.081 296.422 596.36 298.548 586.162 303.875 579.807 305.333 578.066 307.712 577.397 310.177 576.737 L313.49 570.737 C347.428 583.764 385.416 587.259 423.365 578.643 432.022 576.678 440.379 574.134 448.458 571.081 449.389 572.732 451.12 575.906 451.583 576.706 454.089 577.521 456.824 577.942 459.052 581.237 463.038 588.046 465.763 596.101 469.083 605.831 470.541 610.422 471.261 614.49 473.333 619.237 473.806 620.319 474.589 621.842 475.146 622.987 479.041 631.072 488.088 634.774 495.365 631.268 502.584 627.79 505.344 618.528 501.583 610.487 501.025 609.329 500.256 607.645 499.677 606.549 497.258 601.97 494.515 598.895 491.833 594.893 486.296 586.231 481.704 579.035 478.865 571.674 477.678 567.878 479.065 565.517 479.99 563.049 479.436 562.415 478.251 558.829 477.552 557.143 518.01 533.255 547.851 495.122 561.865 451.081 563.757 451.378 567.046 451.96 568.115 452.174 570.314 450.724 572.337 448.831 576.302 449.143 584.111 450.272 592.125 453.173 601.802 456.643 606.3 458.366 609.924 460.366 614.927 461.706 615.985 461.989 617.5 462.253 618.708 462.518 618.806 462.542 618.892 462.59 618.99 462.612 619.055 462.626 619.146 462.629 619.208 462.643 627.881 464.51 636.302 459.764 638.083 451.956 639.864 444.149 634.329 436.224 625.708 434.143 624.455 433.858 622.676 433.374 621.458 433.143 616.369 432.179 612.228 432.417 607.427 432.018 597.203 430.947 588.734 430.075 581.208 427.706 578.14 426.515 575.957 422.864 574.896 421.362 L568.99 419.643 C572.052 397.489 571.226 374.432 565.927 351.362 560.579 328.077 551.127 306.781 538.521 288.018 540.036 286.641 542.897 284.107 543.708 283.362 543.946 280.738 543.742 277.986 546.458 275.081 552.21 269.68 559.462 265.202 568.208 259.799 572.36 257.357 576.198 255.782 580.365 252.706 581.307 252.01 582.594 250.908 583.583 250.112 590.599 244.515 592.214 234.863 587.177 228.549 582.14 222.235 572.38 221.64 565.365 227.237 564.366 228.028 563.011 229.059 562.115 229.831 558.188 233.208 555.763 236.545 552.458 240.049 545.246 247.375 539.284 253.487 532.74 257.893 529.904 259.544 525.75 258.973 523.865 258.862 L518.302 262.831 C486.583 229.57 443.397 208.305 396.896 204.174 396.766 202.225 396.596 198.703 396.552 197.643 394.649 195.821 392.349 194.266 391.771 190.33 391.135 182.467 392.197 174.006 393.427 163.799 394.106 159.03 395.235 155.069 395.427 149.893 395.471 148.716 395.401 147.009 395.396 145.737 395.395 136.763 388.848 129.486 380.771 129.487 Z M362.459 242.924 L358.115 319.643 357.802 319.799 C357.511 326.663 351.862 332.143 344.927 332.143 342.087 332.143 339.464 331.231 337.334 329.674 L337.209 329.737 274.302 285.143 C293.636 266.132 318.365 252.083 346.865 245.612 352.071 244.43 357.275 243.553 362.459 242.924 Z M399.115 242.924 C432.388 247.017 463.16 262.083 486.74 285.174 L424.24 329.487 424.021 329.393 C418.474 333.445 410.658 332.439 406.334 327.018 404.562 324.797 403.633 322.186 403.521 319.549 L403.459 319.518 Z M251.49 313.799 L308.927 365.174 308.865 365.487 C314.049 369.994 314.814 377.815 310.49 383.237 308.719 385.458 306.348 386.947 303.802 387.643 L303.74 387.893 230.115 409.143 C226.368 374.878 234.443 341.569 251.49 313.799 Z M509.646 313.83 C518.18 327.663 524.643 343.113 528.49 359.862 532.291 376.41 533.245 392.929 531.677 408.893 L457.677 387.58 457.615 387.268 C450.988 385.457 446.916 378.716 448.459 371.955 449.091 369.186 450.561 366.843 452.552 365.112 L452.521 364.955 509.646 313.83 Z M368.99 369.143 L392.521 369.143 407.146 387.424 401.896 410.237 380.771 420.393 359.584 410.205 354.334 387.393 Z M444.427 431.705 C445.427 431.655 446.423 431.745 447.396 431.924 L447.521 431.768 523.677 444.643 C512.532 475.956 491.205 503.083 462.709 521.237 L433.146 449.83 433.24 449.705 C430.524 443.395 433.242 435.996 439.49 432.987 441.089 432.216 442.761 431.79 444.427 431.705 Z M316.521 432.018 C322.333 432.099 327.546 436.133 328.896 442.049 329.528 444.819 329.221 447.563 328.177 449.987 L328.396 450.268 299.146 520.955 C271.799 503.407 250.017 477.131 238.365 444.893 L313.865 432.08 313.99 432.237 C314.834 432.081 315.691 432.006 316.521 432.018 Z M380.302 462.987 C382.327 462.912 384.381 463.328 386.334 464.268 388.893 465.5 390.87 467.441 392.115 469.768 L392.396 469.768 429.615 537.018 C424.785 538.637 419.819 540.021 414.74 541.174 386.275 547.637 357.901 545.679 332.209 536.924 L369.334 469.799 369.396 469.799 C371.624 465.635 375.849 463.15 380.302 462.987 Z" fill="#ffffff" fill-opacity="1" stroke="none"/>
 </g>
</svg>
