<?xml version="1.0" encoding="UTF-8"?>
<svg width="200px" height="200px" viewBox="0 0 200 200" xmlns="http://www.w3.org/2000/svg" xmlns:xlink="http://www.w3.org/1999/xlink" version="1.1">
 <!-- Generated by Pixelmator Pro 1.7.1 -->
 <g id="layer1">
  <path id="path3055" d="M100.625 10.702 C98.973 10.785 97.353 11.195 95.863 11.907 L30.878 42.958 C27.47 44.585 24.996 47.662 24.154 51.319 L8.122 121.066 C7.374 124.313 7.982 127.721 9.809 130.516 10.028 130.854 10.264 131.181 10.515 131.497 L55.495 187.422 C57.854 190.354 61.43 192.061 65.211 192.06 L137.344 192.043 C141.124 192.046 144.699 190.343 147.06 187.414 L192.023 131.48 C194.383 128.547 195.267 124.708 194.425 121.049 L178.368 51.302 C177.526 47.645 175.051 44.568 171.644 42.941 L106.651 11.907 C104.776 11.011 102.703 10.597 100.625 10.702 Z" fill="#326ce5" fill-opacity="1" stroke="none"/>
  <path id="path3054-2-9" d="M100.59 5.652 C98.848 5.743 97.141 6.178 95.57 6.932 L26.961 39.702 C23.365 41.42 20.752 44.669 19.864 48.529 L2.942 122.158 C2.15 125.586 2.792 129.187 4.721 132.139 4.953 132.495 5.203 132.839 5.469 133.17 L52.951 192.212 C55.44 195.307 59.215 197.109 63.206 197.108 L139.353 197.091 C143.343 197.094 147.118 195.295 149.609 192.204 L197.074 133.153 C199.563 130.059 200.496 126.009 199.609 122.149 L182.663 48.512 C181.772 44.655 179.16 41.41 175.565 39.694 L106.956 6.923 C104.975 5.977 102.786 5.54 100.59 5.652 Z M100.623 10.705 C102.702 10.6 104.774 11.014 106.649 11.91 L171.642 42.944 C175.049 44.571 177.524 47.648 178.366 51.305 L194.423 121.052 C195.265 124.71 194.381 128.55 192.021 131.483 L147.058 187.417 C144.698 190.345 141.122 192.049 137.342 192.046 L65.21 192.063 C61.428 192.064 57.852 190.357 55.494 187.425 L10.514 131.499 C10.262 131.184 10.026 130.857 9.807 130.519 7.981 127.724 7.372 124.315 8.12 121.069 L24.152 51.322 C24.994 47.665 27.469 44.587 30.876 42.96 L95.861 11.91 C97.352 11.198 98.971 10.788 100.623 10.705 Z" fill="#ffffff" fill-opacity="1" stroke="none"/>
  <path id="path3059" d="M101.269 34.438 C99.121 34.438 97.379 36.373 97.379 38.76 97.379 38.796 97.387 38.831 97.387 38.868 97.384 39.192 97.369 39.583 97.379 39.865 97.431 41.242 97.731 42.295 97.911 43.564 98.238 46.278 98.512 48.528 98.343 50.62 98.179 51.409 97.598 52.13 97.08 52.631 L96.989 54.277 C94.655 54.47 92.305 54.824 89.957 55.357 79.858 57.65 71.162 62.853 64.542 69.877 64.112 69.584 63.361 69.045 63.137 68.88 62.443 68.973 61.741 69.188 60.827 68.655 59.086 67.483 57.501 65.866 55.582 63.918 54.703 62.986 54.067 62.098 53.023 61.2 52.785 60.996 52.423 60.72 52.158 60.51 51.342 59.859 50.379 59.52 49.449 59.488 48.253 59.447 47.102 59.914 46.349 60.859 45.01 62.539 45.438 65.106 47.305 66.594 47.323 66.609 47.344 66.621 47.363 66.635 47.619 66.843 47.933 67.11 48.169 67.284 49.277 68.102 50.289 68.521 51.394 69.17 53.72 70.607 55.648 71.798 57.178 73.235 57.776 73.871 57.88 74.993 57.959 75.478 L59.206 76.592 C52.532 86.636 49.444 99.041 51.269 111.682 L49.64 112.156 C49.211 112.71 48.604 113.582 47.969 113.843 45.968 114.473 43.716 114.705 40.996 114.99 39.72 115.096 38.618 115.033 37.265 115.289 36.967 115.345 36.552 115.453 36.226 115.53 36.214 115.532 36.204 115.536 36.193 115.538 36.175 115.543 36.151 115.551 36.134 115.555 33.842 116.109 32.369 118.216 32.843 120.292 33.317 122.369 35.557 123.632 37.863 123.135 37.88 123.131 37.904 123.13 37.921 123.126 37.947 123.12 37.97 123.108 37.996 123.102 38.318 123.031 38.72 122.952 39.002 122.877 40.332 122.521 41.296 121.997 42.492 121.539 45.066 120.616 47.198 119.845 49.274 119.544 50.141 119.476 51.055 120.08 51.51 120.334 L53.205 120.043 C57.107 132.14 65.284 141.917 75.637 148.052 L74.931 149.747 C75.185 150.406 75.466 151.296 75.277 151.947 74.522 153.904 73.228 155.971 71.756 158.274 71.043 159.339 70.313 160.165 69.67 161.383 69.516 161.674 69.32 162.122 69.171 162.43 68.172 164.569 68.905 167.032 70.825 167.957 72.757 168.887 75.156 167.906 76.194 165.763 76.196 165.76 76.201 165.757 76.202 165.755 76.203 165.752 76.201 165.748 76.202 165.746 76.35 165.442 76.56 165.043 76.684 164.757 77.236 163.495 77.419 162.413 77.806 161.192 78.836 158.606 79.401 155.894 80.818 154.204 81.206 153.741 81.838 153.563 82.494 153.387 L83.375 151.792 C92.401 155.256 102.504 156.186 112.597 153.894 114.899 153.372 117.122 152.695 119.271 151.883 119.518 152.322 119.979 153.166 120.102 153.379 120.768 153.596 121.496 153.708 122.088 154.584 123.148 156.395 123.873 158.538 124.756 161.125 125.144 162.346 125.335 163.428 125.886 164.691 126.012 164.978 126.22 165.384 126.369 165.688 127.405 167.838 129.811 168.823 131.746 167.89 133.666 166.965 134.4 164.502 133.4 162.364 133.251 162.056 133.047 161.608 132.893 161.316 132.249 160.098 131.52 159.281 130.807 158.216 129.334 155.913 128.113 153.999 127.358 152.041 127.042 151.031 127.411 150.403 127.657 149.747 127.51 149.578 127.194 148.625 127.009 148.176 137.769 141.823 145.705 131.681 149.432 119.968 149.935 120.047 150.81 120.202 151.094 120.259 151.679 119.873 152.217 119.37 153.272 119.453 155.349 119.753 157.48 120.525 160.054 121.448 161.25 121.906 162.214 122.438 163.544 122.794 163.826 122.869 164.229 122.94 164.55 123.01 164.576 123.016 164.599 123.029 164.625 123.035 164.642 123.039 164.666 123.04 164.683 123.043 166.99 123.54 169.229 122.278 169.703 120.201 170.177 118.125 168.705 116.017 166.412 115.464 166.078 115.388 165.605 115.259 165.281 115.198 163.928 114.941 162.827 115.005 161.55 114.898 158.831 114.614 156.578 114.382 154.577 113.752 153.761 113.435 153.18 112.464 152.898 112.064 L151.327 111.607 C152.141 105.715 151.922 99.583 150.512 93.447 149.09 87.255 146.576 81.591 143.224 76.601 143.627 76.234 144.387 75.56 144.603 75.362 144.666 74.664 144.612 73.932 145.335 73.16 146.864 71.723 148.793 70.532 151.119 69.095 152.223 68.446 153.244 68.027 154.352 67.209 154.603 67.024 154.945 66.731 155.208 66.519 157.074 65.031 157.504 62.464 156.164 60.784 154.824 59.105 152.229 58.947 150.363 60.435 150.097 60.646 149.737 60.92 149.499 61.125 148.454 62.023 147.809 62.911 146.93 63.843 145.012 65.791 143.427 67.417 141.686 68.589 140.932 69.028 139.827 68.876 139.326 68.846 L137.846 69.902 C129.41 61.056 117.925 55.4 105.557 54.302 105.523 53.783 105.478 52.847 105.466 52.565 104.96 52.08 104.348 51.666 104.194 50.62 104.025 48.528 104.308 46.278 104.635 43.564 104.815 42.295 105.116 41.242 105.167 39.865 105.178 39.552 105.16 39.098 105.159 38.76 105.158 36.373 103.417 34.438 101.269 34.438 Z M96.399 64.607 L95.243 85.011 95.16 85.053 C95.083 86.878 93.58 88.336 91.736 88.336 90.981 88.336 90.283 88.093 89.716 87.679 L89.683 87.696 72.953 75.836 C78.095 70.78 84.672 67.043 92.251 65.322 93.636 65.008 95.02 64.775 96.399 64.607 Z M106.148 64.607 C114.997 65.696 123.181 69.703 129.452 75.844 L112.83 87.63 112.772 87.605 C111.296 88.682 109.218 88.415 108.068 86.973 107.596 86.382 107.349 85.688 107.319 84.986 L107.303 84.978 Z M66.886 83.457 L82.161 97.121 82.145 97.204 C83.524 98.403 83.727 100.483 82.577 101.925 82.106 102.515 81.476 102.911 80.798 103.097 L80.782 103.163 61.201 108.815 C60.204 99.702 62.352 90.843 66.886 83.457 Z M135.544 83.465 C137.814 87.144 139.533 91.253 140.556 95.708 141.567 100.109 141.82 104.502 141.403 108.748 L121.723 103.08 121.706 102.997 C119.944 102.515 118.861 100.722 119.271 98.924 119.439 98.188 119.83 97.565 120.36 97.104 L120.351 97.063 Z M98.136 98.176 L104.394 98.176 108.284 103.038 106.887 109.106 101.269 111.807 95.634 109.097 94.238 103.03 Z M118.199 114.815 C118.465 114.802 118.73 114.826 118.988 114.873 L119.022 114.832 139.276 118.256 C136.312 126.584 130.64 133.799 123.061 138.627 L115.198 119.636 115.223 119.602 C114.501 117.924 115.224 115.956 116.886 115.156 117.311 114.951 117.756 114.838 118.199 114.815 Z M84.181 114.898 C85.727 114.92 87.113 115.993 87.472 117.566 87.64 118.303 87.559 119.033 87.281 119.677 L87.339 119.752 79.56 138.552 C72.287 133.885 66.494 126.897 63.395 118.323 L83.475 114.915 83.508 114.957 C83.732 114.915 83.96 114.895 84.181 114.898 Z M101.144 123.135 C101.683 123.115 102.229 123.226 102.748 123.476 103.429 123.803 103.955 124.319 104.286 124.938 L104.361 124.938 114.259 142.824 C112.975 143.255 111.654 143.623 110.303 143.929 102.733 145.648 95.186 145.127 88.353 142.799 L98.227 124.947 98.244 124.947 C98.836 123.839 99.96 123.178 101.144 123.135 Z" fill="#ffffff" fill-opacity="1" stroke="none"/>
 </g>
</svg>
