<?xml version="1.0" encoding="UTF-8"?>
<svg width="574px" height="557px" viewBox="0 0 574 557" xmlns="http://www.w3.org/2000/svg" xmlns:xlink="http://www.w3.org/1999/xlink" version="1.1">
 <!-- Generated by Pixelmator Pro 1.7.1 -->
 <g id="layer1">
  <path id="path3068" d="M325.404 384.278 C365.725 369.304 386.774 340.465 386.774 290.831 386.774 241.196 344.949 197.46 292.687 197.375 237.538 197.285 195.936 241.015 196.601 290.831 197.266 340.646 221.022 373.786 259.047 385.77 L191.689 551.48 C101.536 528.142 9.845 421.788 9.845 290.831 9.845 135.721 134.478 9.981 290.687 9.981 446.897 9.981 573.53 135.721 573.53 290.831 573.53 423.825 482.709 528.695 390.632 551.946 Z" fill="#3ea639" fill-opacity="1" stroke="#1e541e" stroke-width="19.212" stroke-opacity="1" stroke-linejoin="round"/>
  <g id="flowRoot5282">
   <path id="path3432" d="M553.324 534.385 C554.271 534.705 555.19 535.39 556.079 536.44 556.982 537.489 557.886 538.932 558.79 540.769 L563.272 549.689 558.527 549.689 554.352 541.315 C553.273 539.129 552.224 537.679 551.203 536.965 550.198 536.25 548.82 535.893 547.071 535.893 L542.261 535.893 542.261 549.689 537.845 549.689 537.845 517.047 547.814 517.047 C551.546 517.047 554.33 517.827 556.166 519.387 558.003 520.946 558.921 523.3 558.921 526.448 558.921 528.504 558.44 530.209 557.478 531.564 556.531 532.92 555.146 533.86 553.324 534.385 M542.261 520.677 L542.261 532.264 547.814 532.264 C549.942 532.264 551.546 531.776 552.624 530.799 553.717 529.808 554.264 528.358 554.264 526.448 554.264 524.539 553.717 523.103 552.624 522.141 551.546 521.165 549.942 520.677 547.814 520.677 Z" fill="#000000" fill-opacity="1" stroke="none"/>
  </g>
  <path id="path5290" d="M571.563 533.911 C571.563 546.621 561.26 556.924 548.55 556.924 535.84 556.924 525.536 546.621 525.536 533.911 525.533 525.686 529.919 518.086 537.041 513.973 544.162 509.861 552.937 509.861 560.059 513.973 567.18 518.086 571.566 525.686 571.563 533.91 Z" fill="none" stroke="#000000" stroke-width="7.524" stroke-opacity="1" stroke-linejoin="round"/>
 </g>
</svg>
