<svg xmlns="http://www.w3.org/2000/svg" xmlns:xlink="http://www.w3.org/1999/xlink" width="200" height="200" version="1.1" viewBox="0 0 200 200"><g id="layer1"><path id="path3068" fill="#3ea639" fill-opacity="1" stroke="#1e541e" stroke-linejoin="round" stroke-opacity="1" stroke-width="6.694" d="M113.381 137.031 C127.43 131.813 134.764 121.765 134.764 104.471 134.764 87.176 120.191 71.937 101.982 71.908 82.766 71.876 68.27 87.113 68.502 104.471 68.734 121.828 77.011 133.375 90.26 137.551 L66.791 195.289 C35.378 187.158 3.43 150.1 3.43 104.471 3.43 50.425 46.856 6.614 101.285 6.614 155.713 6.614 199.836 50.425 199.836 104.471 199.836 150.81 168.191 187.35 136.109 195.452 Z"/><g id="flowRoot5282"><path id="path3432" fill="#000" fill-opacity="1" stroke="none" d="M192.796 189.333 C193.126 189.444 193.446 189.683 193.756 190.049 194.07 190.414 194.385 190.917 194.7 191.557 L196.262 194.665 194.609 194.665 193.154 191.747 C192.778 190.986 192.413 190.48 192.057 190.232 191.707 189.983 191.226 189.858 190.617 189.858 L188.941 189.858 188.941 194.665 187.402 194.665 187.402 183.292 190.876 183.292 C192.176 183.292 193.146 183.563 193.786 184.107 194.426 184.65 194.746 185.47 194.746 186.567 194.746 187.284 194.578 187.878 194.243 188.35 193.913 188.822 193.431 189.15 192.796 189.333 M188.941 184.556 L188.941 188.594 190.876 188.594 C191.617 188.594 192.176 188.424 192.552 188.083 192.933 187.738 193.123 187.233 193.123 186.567 193.123 185.902 192.933 185.402 192.552 185.067 192.176 184.727 191.617 184.556 190.876 184.556 Z"/></g><path id="path5290" fill="none" stroke="#000" stroke-linejoin="round" stroke-opacity="1" stroke-width="2.622" d="M199.151 189.168 C199.151 193.596 195.561 197.186 191.132 197.186 186.704 197.186 183.114 193.596 183.114 189.168 183.113 186.302 184.641 183.654 187.122 182.221 189.603 180.788 192.661 180.788 195.143 182.221 197.624 183.654 199.152 186.302 199.151 189.167 Z"/></g></svg>